<svg width="92" height="59" viewBox="0 0 92 59" fill="none" xmlns="http://www.w3.org/2000/svg">
<path d="M46.1337 6.38851L37.082 12.6701L46.1337 18.9517L37.082 25.2333L28.0302 18.9077L37.082 12.6262L28.0302 6.38851L37.082 0.106934L46.1337 6.38851ZM37.0416 27.21L46.0933 20.9284L55.1451 27.21L46.0933 33.4916L37.0416 27.21ZM46.1337 18.9077L55.1855 12.6262L46.1337 6.38851L55.1451 0.106934L64.1969 6.38851L55.1451 12.6701L64.1969 18.9517L55.1451 25.2333L46.1337 18.9077Z" fill="#0061FF"/>
<path d="M0.607147 38.3306H6.48789C10.2568 38.3306 13.3433 40.5564 13.3433 45.6062V46.6693C13.3433 51.7855 10.4517 54.0779 6.61785 54.0779H0.607147V38.3306ZM3.88867 41.1877V51.1876H6.39042C8.53478 51.1876 9.96435 49.759 9.96435 46.6029V45.7723C9.96435 42.6162 8.4698 41.1877 6.29295 41.1877H3.88867ZM15.0653 41.3206H17.697L18.1194 44.2773C18.6068 42.2508 19.9064 41.1877 22.2132 41.1877H23.0254V44.5763H21.6609C18.9967 44.5763 18.3468 45.5398 18.3468 48.2308V54.0779H15.0978V41.2873H15.0653V41.3206ZM23.7077 47.9982V47.6328C23.7077 43.3471 26.3719 41.0216 30.0109 41.0216C33.7148 41.0216 36.314 43.3471 36.314 47.6328V47.9982C36.314 52.1842 33.8122 54.4433 30.0109 54.4433C25.9821 54.4101 23.7077 52.1842 23.7077 47.9982ZM33 47.9318V47.5996C33 45.2408 31.8303 43.8122 29.9784 43.8122C28.1589 43.8122 26.9568 45.1079 26.9568 47.5996V47.9318C26.9568 50.2241 28.1264 51.5198 29.9784 51.5198C31.8303 51.5198 33 50.2573 33 47.9318ZM38.036 41.3206H40.7327L41.0576 43.7458C41.7074 42.1179 43.1044 41.0216 45.1513 41.0216C48.3354 41.0216 50.4148 43.3471 50.4148 47.666V48.0314C50.4148 52.2174 48.108 54.4433 45.1513 54.4433C43.1694 54.4433 41.8373 53.5463 41.155 52.0845V58.5297H37.971L38.036 41.3206ZM47.1332 47.9318V47.666C47.1332 45.1411 45.8661 43.8787 44.1441 43.8787C42.3247 43.8787 41.1225 45.3072 41.1225 47.666V47.8986C41.1225 50.1577 42.2922 51.5862 44.1116 51.5862C45.9636 51.553 47.1332 50.3238 47.1332 47.9318ZM55.2233 51.7523L54.9634 54.0779H52.1692V37.0681H55.3533V43.6129C56.0356 41.9518 57.4327 41.0548 59.4146 41.0548C62.4037 41.088 64.613 43.181 64.613 47.4334V47.8321C64.613 52.0513 62.5336 54.4765 59.3496 54.4765C57.2377 54.4101 55.8731 53.4134 55.2233 51.7523ZM61.2665 47.7989V47.4667C61.2665 45.1411 60.0319 43.8122 58.2774 43.8122C56.4904 43.8122 55.2558 45.274 55.2558 47.4999V47.7657C55.2558 50.1244 56.458 51.5198 58.2449 51.5198C60.1294 51.553 61.2665 50.3238 61.2665 47.7989ZM65.9776 47.9982V47.6328C65.9776 43.3471 68.6418 41.0216 72.2807 41.0216C75.9846 41.0216 78.5838 43.3471 78.5838 47.6328V47.9982C78.5838 52.1842 76.0171 54.4433 72.2807 54.4433C68.2519 54.4101 65.9776 52.1842 65.9776 47.9982ZM75.3023 47.9318V47.5996C75.3023 45.2408 74.1327 43.8122 72.2807 43.8122C70.4613 43.8122 69.2591 45.1079 69.2591 47.5996V47.9318C69.2591 50.2241 70.4288 51.5198 72.2807 51.5198C74.1327 51.5198 75.3023 50.2573 75.3023 47.9318ZM82.8401 47.4667L78.4539 41.3206H82.2228L84.7245 45.1743L87.2912 41.3206H90.9951L86.544 47.4002L91.2226 54.0447H87.5512L84.692 49.8254L81.8979 54.0447H78.0965L82.8401 47.4667Z" fill="black"/>
</svg>
