<svg width="88" height="61" viewBox="0 0 88 61" fill="none" xmlns="http://www.w3.org/2000/svg">
<g style="mix-blend-mode:luminosity">
<path d="M37.5318 0.901563L37.5662 0.900757L37.5693 0.940257L37.5255 0.941869L37.5318 0.901563Z" fill="#0BA25E"/>
<path d="M37.4076 1.1513C37.4359 1.10946 37.4909 1.02577 37.5191 0.983927L37.5698 0.975708C37.6075 1.44943 37.7422 1.90597 37.8435 2.36699C38.2794 4.37022 38.7197 6.37196 39.178 8.36922C39.4786 9.73883 39.8138 11.1017 40.089 12.4766C40.3279 13.3276 40.4561 14.2056 40.6871 15.0581C40.8362 15.8531 41.0701 16.6287 41.1954 17.4282C41.1447 17.5157 41.094 17.6038 41.0426 17.6913C41.0303 17.7114 41.0042 17.7533 40.9919 17.7742L40.9731 17.8078C40.9702 17.8138 40.9637 17.8265 40.9601 17.8325C40.9318 17.8863 40.8753 17.9931 40.8471 18.0462C40.842 18.0559 40.8312 18.0753 40.8254 18.085L40.774 18.1792C40.7674 18.1904 40.7551 18.212 40.7493 18.2233L40.6892 18.3316C40.6864 18.3376 40.6798 18.3495 40.6762 18.3555L40.6016 18.49C40.5951 18.5012 40.5821 18.5251 40.5756 18.5371C40.5683 18.5498 40.5538 18.5744 40.5466 18.5871L40.4735 18.7172C40.4677 18.7269 40.4561 18.7478 40.4503 18.7575L40.4054 18.836C40.3982 18.8494 40.3822 18.8771 40.375 18.8905C40.346 18.9421 40.2888 19.0452 40.2599 19.0975C40.2548 19.1064 40.2439 19.1251 40.2389 19.1348L40.1932 19.2133C40.186 19.2275 40.1701 19.2544 40.1621 19.2686C40.1353 19.3172 40.0803 19.4135 40.0535 19.4621C40.047 19.4733 40.0347 19.4965 40.0281 19.5077L39.9738 19.6086C39.9688 19.6175 39.9586 19.6362 39.9536 19.6452L39.8978 19.746C39.892 19.7565 39.8804 19.7774 39.8746 19.7879C39.8457 19.8372 39.7892 19.9366 39.7609 19.9866C39.7544 19.9979 39.7414 20.021 39.7349 20.033L39.6835 20.1286C39.6784 20.1376 39.669 20.1548 39.6646 20.1637L39.6053 20.2698C39.6002 20.2795 39.5893 20.2982 39.5843 20.3072C39.5539 20.361 39.4938 20.4678 39.4633 20.5216C39.4583 20.5313 39.4467 20.5508 39.4409 20.5605L39.3975 20.6345C39.3902 20.6479 39.375 20.6741 39.3678 20.6875C39.3402 20.7368 39.2859 20.8347 39.2584 20.884C39.2541 20.8922 39.2439 20.9102 39.2396 20.9184L39.1802 21.0275C39.1759 21.0357 39.1672 21.0514 39.1628 21.0596L39.102 21.1695C39.097 21.1777 39.0868 21.1956 39.0817 21.2038C39.0535 21.2531 38.9963 21.3503 38.9681 21.3996C38.9601 21.4123 38.9456 21.4392 38.9376 21.4526L38.8949 21.5348C38.8891 21.5453 38.8783 21.5662 38.8732 21.5759L38.7986 21.7089C38.7928 21.7201 38.7798 21.7426 38.774 21.7538C38.7675 21.7642 38.7559 21.7859 38.7501 21.7964C38.6277 22.0093 38.5169 22.229 38.3815 22.4337C37.6104 23.7316 36.9008 25.0698 36.1542 26.3834C34.9421 28.548 33.7314 30.7127 32.5192 32.8773C32.3375 33.2143 32.1304 33.5371 31.974 33.889C31.966 33.9009 31.9501 33.9249 31.9421 33.9368C31.6517 33.5049 31.4273 33.0282 31.1615 32.5799C29.9494 30.4138 28.7365 28.2484 27.5251 26.0815C26.8517 24.8629 26.15 23.6591 25.4947 22.4292C28.0899 17.8078 30.6735 13.1782 33.2636 8.55378C33.2658 8.5493 33.2708 8.54108 33.273 8.53659L33.344 8.41107C33.3469 8.40584 33.3527 8.39537 33.3563 8.39014L33.428 8.26387C33.4345 8.25266 33.4475 8.22875 33.4548 8.21754C33.462 8.20409 33.4765 8.17794 33.4837 8.16449L33.5554 8.03298C33.5605 8.02402 33.5706 8.00608 33.5757 7.99712L33.6293 7.90895C33.6387 7.89475 33.6575 7.86561 33.6669 7.85067C33.693 7.81032 33.7458 7.72888 33.7726 7.68853C33.7755 7.67508 33.7806 7.64892 33.7835 7.63622L33.8465 7.51144C33.8494 7.50621 33.8552 7.49575 33.8581 7.49052L33.9305 7.36499C33.9377 7.35303 33.9522 7.32763 33.9595 7.31493C33.9674 7.30073 33.9834 7.27159 33.992 7.25665L34.0529 7.14681C34.0594 7.13485 34.0724 7.11169 34.0789 7.10048L34.1296 7.00858C34.1354 6.99886 34.147 6.97794 34.1528 6.96748C34.181 6.91742 34.2375 6.81729 34.2665 6.76723C34.2723 6.75677 34.2839 6.73585 34.2896 6.72539L34.3425 6.62601C34.3469 6.61854 34.3555 6.6021 34.3599 6.59463L34.4294 6.4691C34.4381 6.45416 34.4562 6.42352 34.4656 6.40858L34.5127 6.33535C34.5228 6.32041 34.5424 6.29127 34.5525 6.27707C34.5612 6.26213 34.5793 6.23224 34.5887 6.2173L34.6278 6.13959C34.6408 6.11045 34.6676 6.05217 34.6807 6.02302L34.7205 5.96549C34.7277 5.95503 34.7415 5.93485 34.7487 5.92439C34.7755 5.90123 34.8298 5.85341 34.8566 5.8295L34.8515 5.74208C34.8559 5.73162 34.866 5.7107 34.8711 5.70023L34.9326 5.57396C34.9377 5.56499 34.9479 5.54631 34.9529 5.53735L35.0072 5.44619C35.0174 5.43124 35.0369 5.40136 35.0471 5.38641C35.0717 5.34457 35.1216 5.26238 35.1463 5.22128C35.1535 5.20634 35.1665 5.1772 35.1738 5.16225L35.2122 5.07633C35.2237 5.05391 35.2484 5.00833 35.2607 4.98517L35.3085 4.91493C35.3186 4.90073 35.3389 4.87234 35.349 4.85814C35.3577 4.8432 35.3758 4.81331 35.3845 4.79837L35.42 4.72141C35.4279 4.70422 35.4446 4.6691 35.4526 4.65192L35.5148 4.52788C35.5242 4.51294 35.5423 4.48156 35.551 4.46587L35.5988 4.39264C35.609 4.3777 35.6292 4.3493 35.6394 4.33436C35.6488 4.31942 35.6669 4.28878 35.6756 4.27384L35.7125 4.19613C35.7234 4.17446 35.7444 4.13187 35.7545 4.1102L35.8037 4.02651C35.8124 4.01232 35.8298 3.98392 35.8392 3.96973C35.8653 3.92788 35.9181 3.8442 35.9449 3.8031C35.9478 3.7904 35.9544 3.76499 35.9572 3.75229L36.0202 3.62826C36.0224 3.62303 36.0282 3.61331 36.0311 3.60808L36.1035 3.48031C36.1108 3.46761 36.1245 3.44295 36.1318 3.43025C36.139 3.41829 36.1528 3.39289 36.16 3.38094L36.2324 3.25018C36.2353 3.24495 36.2411 3.23448 36.244 3.22851L36.3121 3.10671C36.3157 3.10148 36.3222 3.09028 36.3251 3.0843L36.3982 2.95727C36.4047 2.94532 36.4178 2.9229 36.4243 2.91095C36.4315 2.89825 36.446 2.87209 36.4533 2.85864L36.5228 2.73237C36.5271 2.72415 36.5358 2.70846 36.5402 2.70099L36.5988 2.6031C36.6082 2.58891 36.627 2.55977 36.6357 2.54557C36.6625 2.50447 36.7147 2.42228 36.7415 2.38119C36.7436 2.36848 36.7494 2.34308 36.7523 2.33038L36.8139 2.20858C36.8189 2.19962 36.8298 2.18094 36.8349 2.17122L36.8899 2.08231C36.9 2.06811 36.9189 2.03897 36.929 2.02403C36.9543 1.98218 37.005 1.89924 37.0304 1.8574C37.034 1.84545 37.0405 1.82153 37.0441 1.80958L37.1078 1.68629C37.1107 1.68031 37.1165 1.66985 37.1194 1.66388L37.1933 1.53536C37.1991 1.52415 37.2121 1.50173 37.2186 1.49053C37.2251 1.47782 37.2382 1.45391 37.2447 1.44196L37.3171 1.30896C37.3207 1.30373 37.3265 1.29252 37.3294 1.28729L37.3982 1.16699C37.4004 1.16325 37.4054 1.15504 37.4076 1.1513Z" fill="#0BA25E"/>
<path d="M37.5262 0.940333L37.57 0.938721L37.5739 0.974996L37.5192 0.983863L37.5262 0.940333Z" fill="#089156"/>
<path d="M37.5699 0.969971C37.7241 1.1762 37.8385 1.40932 37.9645 1.63348C39.9768 5.22675 41.9876 8.82002 43.9956 12.4155C43.0658 14.0863 42.1288 15.7533 41.1955 17.4225C41.0702 16.623 40.8363 15.8474 40.6872 15.0524C40.4562 14.1998 40.328 13.3219 40.089 12.4708C39.8139 11.096 39.4786 9.73309 39.1781 8.36348C38.7198 6.36622 38.2795 4.36449 37.8436 2.36125C37.7422 1.90023 37.6076 1.44369 37.5699 0.969971Z" fill="#089156"/>
<path d="M34.7488 5.92079C34.7741 5.87508 34.8256 5.78384 34.8517 5.73813L34.8566 5.82562C34.8299 5.8496 34.7755 5.89756 34.7488 5.92079Z" fill="#089156"/>
<path d="M37.5634 0.900505C39.9153 0.889297 42.2679 0.899011 44.6205 0.895275C46.5669 0.902747 48.5147 0.879583 50.4604 0.906482C50.4987 0.982697 50.5378 1.05816 50.5791 1.13363C50.5849 1.14334 50.5958 1.16427 50.6016 1.17473C50.7898 1.51321 50.981 1.85019 51.1671 2.18942C51.1707 2.1954 51.1765 2.20661 51.1801 2.21184C51.5407 2.85069 51.8999 3.49029 52.254 4.13288C52.2569 4.13811 52.2634 4.14857 52.2663 4.15455C52.3307 4.26887 52.3973 4.38319 52.4632 4.49826C52.469 4.50797 52.4799 4.52815 52.4857 4.53861C52.5762 4.70299 52.6674 4.86663 52.7594 5.03026C52.763 5.03549 52.7688 5.04595 52.7717 5.05193C52.8637 5.21482 52.9542 5.3792 53.0454 5.54359C53.0512 5.5533 53.0621 5.57273 53.0679 5.58244C53.1598 5.74234 53.2489 5.90374 53.3372 6.06513C53.343 6.07484 53.3539 6.09502 53.3597 6.10473C54.2242 7.64545 55.0866 9.18692 55.9483 10.7299C55.8499 11.1775 56.0881 11.6228 55.9556 12.0726C55.8752 13.3017 55.4255 14.498 54.684 15.4634C54.4429 15.7331 54.6768 16.1075 54.6507 16.4273C54.3908 16.7523 54.0563 16.9951 53.7405 17.2574C53.7413 17.5025 53.742 17.7476 53.7311 17.9934C53.4495 18.1854 53.1265 18.2967 52.8405 18.4821C52.8101 18.5814 52.7789 18.6816 52.7493 18.7824C52.5197 18.8945 52.2742 18.967 52.0447 19.0806C51.136 18.8116 50.2366 18.5119 49.33 18.2347C48.4865 17.9471 47.6226 17.7214 46.7877 17.4046L46.7399 17.3164C46.7356 17.3097 46.7284 17.2962 46.7247 17.2895L46.6559 17.1692C46.6487 17.1565 46.6342 17.1311 46.627 17.1184C46.6205 17.1072 46.6089 17.0855 46.6024 17.0743C46.551 16.9802 46.5039 16.8838 46.4619 16.7852L46.4575 16.7755L46.4525 16.768C46.4206 16.7157 46.3562 16.6103 46.3236 16.558C46.32 16.552 46.3127 16.5401 46.3091 16.5334L46.2881 16.499C46.2758 16.4773 46.2504 16.4347 46.2381 16.4131C46.207 16.3585 46.144 16.2494 46.1129 16.1949C46.1049 16.1814 46.0897 16.1538 46.0817 16.1403L46.0376 16.0626C46.0318 16.0522 46.0202 16.032 46.0144 16.0215L45.9442 15.8967C45.9413 15.8915 45.9347 15.8811 45.9318 15.8751L45.858 15.7443C45.8515 15.7324 45.8384 15.7085 45.8319 15.6972C45.8247 15.6838 45.8095 15.6562 45.8022 15.6427L45.7421 15.5336C45.7349 15.5209 45.7204 15.494 45.7132 15.4813L45.6668 15.3969C45.6603 15.3857 45.648 15.3633 45.6415 15.352C45.6132 15.2982 45.556 15.1914 45.5271 15.1376C45.5242 15.1316 45.5169 15.1189 45.514 15.1129L45.4945 15.0778C45.4807 15.0569 45.4539 15.0151 45.4402 14.9941C45.3685 14.8701 45.3012 14.7431 45.2367 14.6153C45.2331 14.6093 45.2266 14.5966 45.2237 14.5906L45.2048 14.5563C45.1911 14.5361 45.1636 14.4958 45.1498 14.4763C45.118 14.4173 45.0542 14.2992 45.0224 14.2402C45.0188 14.2342 45.0115 14.2215 45.0086 14.2148L44.9891 14.1789C44.9746 14.1543 44.9463 14.1057 44.9319 14.0811L44.8696 13.9727C44.8638 13.9623 44.8515 13.9413 44.845 13.9301C44.8175 13.8808 44.7617 13.7814 44.7335 13.7321C44.7269 13.7209 44.7146 13.6977 44.7081 13.6858C44.6589 13.6014 44.6118 13.5162 44.5655 13.431C44.5618 13.4243 44.5539 13.4108 44.5503 13.4041L44.4815 13.2823C44.4742 13.2704 44.4605 13.2464 44.454 13.2337C44.4474 13.2225 44.4351 13.2001 44.4286 13.1889L44.3555 13.0574C44.3519 13.0514 44.3453 13.0387 44.3417 13.0327L44.2823 12.9229C44.2773 12.9139 44.2679 12.8968 44.2628 12.8878C44.2353 12.8377 44.1795 12.7383 44.152 12.6883C44.1462 12.6778 44.1346 12.6576 44.1288 12.6479C44.0839 12.571 44.039 12.4933 43.9956 12.4163C41.9877 8.82079 39.9768 5.22752 37.9646 1.63425C37.8386 1.41009 37.7242 1.17697 37.5699 0.970741L37.5663 0.937118L37.5634 0.900505Z" fill="#F9C941"/>
<path d="M55.9483 10.7299C57.2075 12.9812 58.4747 15.2287 59.7238 17.4868C59.7296 17.4965 59.7411 17.5174 59.7469 17.5271C59.7759 17.5764 59.8338 17.6743 59.8621 17.7229C59.8679 17.7326 59.8794 17.7528 59.8852 17.7625L59.9432 17.8648C59.9468 17.8716 59.954 17.8858 59.9584 17.8925L60.0308 18.0225C60.038 18.0352 60.0518 18.0613 60.059 18.0741C60.0655 18.0853 60.0786 18.1084 60.0851 18.1204L60.1561 18.2474C60.159 18.2526 60.1647 18.2631 60.1676 18.2683L60.2386 18.3939C60.2415 18.3991 60.2473 18.4088 60.2502 18.414L60.3211 18.541C60.3284 18.5538 60.3422 18.5784 60.3494 18.5911C60.3559 18.6038 60.3697 18.6285 60.3762 18.6404L60.4493 18.7734C60.4595 18.7996 60.4797 18.8504 60.4899 18.8758L60.5101 18.9169L60.5196 18.9386L60.5355 18.9602L60.5782 19.0267C60.5934 19.0514 60.6231 19.1007 60.6383 19.1254C60.647 19.1403 60.6658 19.1702 60.6745 19.1851L60.7223 19.2636C60.7368 19.2972 60.7657 19.3652 60.7802 19.3988L60.802 19.4392L60.8099 19.4549L60.8164 19.4646C60.8483 19.5132 60.9113 19.611 60.9432 19.6596C60.9511 19.6731 60.967 19.7 60.9757 19.7134L61.0192 19.7881C61.0257 19.8001 61.0387 19.8232 61.0453 19.8344L61.1184 19.9667C61.1249 19.9787 61.1379 20.0026 61.1445 20.0145C61.151 20.0265 61.164 20.0496 61.1705 20.0616L61.2429 20.1894C61.2458 20.1953 61.2523 20.2066 61.256 20.2118L61.3219 20.3313C61.3262 20.3388 61.3349 20.3545 61.3392 20.362L61.4059 20.4823C61.4138 20.4957 61.429 20.5234 61.437 20.5368C61.4435 20.5488 61.4573 20.5727 61.4638 20.5846C61.5174 20.6765 61.5688 20.7699 61.6166 20.8656C61.6238 20.8813 61.6383 20.9127 61.6448 20.9283L61.6781 21.0061C61.6868 21.021 61.7042 21.0516 61.7121 21.0666C61.723 21.0815 61.744 21.1099 61.7549 21.1241L61.8048 21.1973C61.8135 21.2115 61.8309 21.2399 61.8403 21.2549L61.9134 21.3856C61.92 21.3976 61.933 21.4215 61.9395 21.4334C61.946 21.4454 61.9591 21.4686 61.9663 21.4805L62.0387 21.609C62.0416 21.615 62.0474 21.6255 62.0503 21.6307L62.1191 21.7547C62.122 21.76 62.1278 21.7697 62.1307 21.7749L62.2009 21.9012C62.2082 21.9139 62.2226 21.9393 62.2299 21.9527C62.2371 21.9655 62.2516 21.9909 62.2581 22.0036L62.3305 22.1321C62.3334 22.1373 62.3385 22.1478 62.3414 22.153L62.4181 22.3009L62.4174 22.3682C60.6057 21.831 58.823 21.1936 57.0062 20.6758C55.3574 20.1266 53.6935 19.6268 52.0447 19.0806C52.2742 18.967 52.5197 18.8945 52.7493 18.7824C52.7789 18.6816 52.8101 18.5814 52.8405 18.4821C53.1265 18.2967 53.4495 18.1854 53.7311 17.9934C53.742 17.7476 53.7413 17.5025 53.7405 17.2574C54.0563 16.9951 54.3908 16.7523 54.6507 16.4273C54.6768 16.1075 54.4429 15.7331 54.684 15.4634C55.4255 14.498 55.8752 13.3017 55.9556 12.0726C56.0881 11.6228 55.8499 11.1775 55.9483 10.7299Z" fill="#F9C941"/>
<path d="M62.4175 22.3691L62.4581 22.3707L62.4807 22.4314L62.4347 22.4346L62.4175 22.3691Z" fill="#F9C941"/>
<path d="M60.5101 18.9174C60.5166 18.9287 60.529 18.9505 60.5355 18.961L60.5195 18.9392L60.5101 18.9174Z" fill="#E8B835"/>
<path d="M60.802 19.44C60.8057 19.4467 60.8132 19.4594 60.8169 19.4654L60.8102 19.4557L60.802 19.44Z" fill="#E8B835"/>
<path d="M46.4523 16.7688L46.4575 16.7763L46.462 16.786C46.4598 16.7815 46.4546 16.7733 46.4523 16.7688Z" fill="#E8B835"/>
<path d="M46.7877 17.4054C47.6226 17.7222 48.4864 17.9479 49.33 18.2356C50.2366 18.5128 51.1359 18.8124 52.0446 19.0814C53.6934 19.6276 55.3574 20.1275 57.0062 20.6767C56.9816 21.0405 57.0511 21.4134 56.9635 21.7705C56.8961 22.118 56.4935 22.1725 56.3277 22.4498C54.0996 22.4505 51.8723 22.4572 49.645 22.4475L49.5972 22.4438C48.6768 20.7551 47.7196 19.0874 46.7877 17.4054Z" fill="#E8B835"/>
<path d="M57.0062 20.6767C58.8229 21.1945 60.6057 21.8316 62.4174 22.3689L62.4333 22.4301C60.3993 22.4779 58.3624 22.4385 56.3277 22.4498C56.4935 22.1725 56.8961 22.118 56.9635 21.7705C57.0511 21.4134 56.9816 21.0405 57.0062 20.6767Z" fill="#E8B835"/>
<path d="M62.4183 22.3029C62.4284 22.3212 62.4479 22.358 62.4581 22.3763L62.4175 22.3747L62.4183 22.3029Z" fill="#E8B835"/>
<path d="M36.1576 26.3788C36.9041 25.0652 37.6138 23.727 38.3849 22.4291C42.1235 22.4433 45.8627 22.4074 49.6005 22.4433L49.6483 22.447C47.7577 22.5098 45.862 22.4306 43.9714 22.4799C43.6108 22.7198 43.3704 23.1083 43.025 23.3698C42.7042 23.6112 42.4681 23.9474 42.1618 24.2052C41.7324 24.5317 41.4131 24.9845 40.9772 25.3043C40.4732 25.855 39.8918 26.319 39.3835 26.8667C39.0026 27.1686 38.684 27.5414 38.3292 27.8739C37.9389 28.1661 37.6398 28.5621 37.2749 28.8849C37.2655 28.8931 37.2474 28.9095 37.2379 28.9185C37.2184 28.9342 37.18 28.9671 37.1605 28.9828C37.1511 28.991 37.1337 29.0059 37.1243 29.0141C36.8368 29.2435 36.6167 29.5461 36.3343 29.7815C36.3249 29.7897 36.3068 29.8054 36.2981 29.8129C36.2887 29.8211 36.2706 29.8368 36.2611 29.8443C35.8491 30.1932 35.5189 30.6348 35.0866 30.9598C34.6515 31.4052 34.1605 31.7877 33.7471 32.257C33.1359 32.7755 32.6073 33.3875 31.9774 33.8844C32.1338 33.5324 32.3409 33.2097 32.5226 32.8727C33.7347 30.708 34.9454 28.5434 36.1576 26.3788Z" fill="#296AD9"/>
<path d="M31.9423 33.9371C31.9509 33.9243 31.968 33.8988 31.9766 33.886L31.9743 33.9379L31.9423 33.9371Z" fill="#296AD9"/>
<path d="M49.6474 22.4469C51.8747 22.4566 54.102 22.4499 56.3301 22.4492C58.3648 22.438 60.4017 22.4776 62.4357 22.4297L62.4784 22.4268L62.5074 22.435V22.441C60.3597 26.2718 58.2185 30.1072 56.0709 33.9388C48.0384 33.9366 40.006 33.9463 31.9742 33.9328L31.9764 33.8843C32.6064 33.3874 33.135 32.7754 33.7461 32.2569C34.1596 31.7876 34.6505 31.4051 35.0857 30.9598C35.518 30.6347 35.8482 30.1931 36.2602 29.8442C36.2696 29.8367 36.2877 29.821 36.2971 29.8128C36.3058 29.8053 36.3239 29.7896 36.3333 29.7814C36.6157 29.5461 36.8359 29.2434 37.1233 29.014C37.1327 29.0058 37.1501 28.9909 37.1595 28.9827C37.1791 28.967 37.2175 28.9341 37.237 28.9184C37.2464 28.9094 37.2645 28.893 37.2739 28.8848C37.6389 28.562 37.9379 28.166 38.3282 27.8738C38.683 27.5413 39.0016 27.1685 39.3825 26.8666C39.8908 26.3189 40.4723 25.8549 40.9763 25.3042C41.4122 24.9844 41.7315 24.5316 42.1609 24.2051C42.4672 23.9473 42.7032 23.6111 43.024 23.3697C43.3694 23.1082 43.6098 22.7197 43.9704 22.4798C45.861 22.4305 47.7567 22.5097 49.6474 22.4469Z" fill="#2A71E9"/>
</g>
<path d="M21.7964 52.9044C21.7964 55.2656 19.9804 57.0055 17.7519 57.0055C15.5233 57.0055 13.7074 55.2656 13.7074 52.9044C13.7074 50.5266 15.5233 48.8033 17.7519 48.8033C19.9804 48.8033 21.7964 50.5266 21.7964 52.9044ZM20.0259 52.9044C20.0259 51.4289 18.9734 50.4194 17.7519 50.4194C16.5304 50.4194 15.4779 51.4289 15.4779 52.9044C15.4779 54.3651 16.5304 55.3895 17.7519 55.3895C18.9734 55.3895 20.0259 54.3633 20.0259 52.9044Z" fill="#676667"/>
<path d="M30.5216 52.9044C30.5216 55.2656 28.7057 57.0055 26.4771 57.0055C24.2486 57.0055 22.4326 55.2656 22.4326 52.9044C22.4326 50.5285 24.2486 48.8033 26.4771 48.8033C28.7057 48.8033 30.5216 50.5266 30.5216 52.9044ZM28.7511 52.9044C28.7511 51.4289 27.6986 50.4194 26.4771 50.4194C25.2556 50.4194 24.2031 51.4289 24.2031 52.9044C24.2031 54.3651 25.2556 55.3895 26.4771 55.3895C27.6986 55.3895 28.7511 54.3633 28.7511 52.9044Z" fill="#676667"/>
<path d="M38.8831 49.0511V56.4138C38.8831 59.4425 37.1271 60.6794 35.0513 60.6794C33.0972 60.6794 31.9211 59.35 31.4776 58.2628L33.0191 57.6101C33.2935 58.2776 33.9661 59.0653 35.0495 59.0653C36.3782 59.0653 37.2017 58.2314 37.2017 56.6616V56.0717H37.1399C36.7436 56.5691 35.9802 57.0036 35.0167 57.0036C33.0009 57.0036 31.1541 55.2175 31.1541 52.9192C31.1541 50.6043 33.0009 48.8033 35.0167 48.8033C35.9783 48.8033 36.7418 49.2379 37.1399 49.7204H37.2017V49.053H38.8831V49.0511ZM37.3271 52.9192C37.3271 51.4751 36.3801 50.4194 35.1749 50.4194C33.9534 50.4194 32.93 51.4751 32.93 52.9192C32.93 54.3485 33.9534 55.3895 35.1749 55.3895C36.3801 55.3895 37.3271 54.3485 37.3271 52.9192Z" fill="#676667"/>
<path d="M41.6551 44.7363V56.7548H39.9282V44.7363H41.6551Z" fill="#676667"/>
<path d="M48.3843 54.2536L49.7585 55.1855C49.315 55.853 48.2462 57.003 46.3993 57.003C44.109 57.003 42.3985 55.2021 42.3985 52.902C42.3985 50.4631 44.1235 48.8009 46.2012 48.8009C48.2934 48.8009 49.3168 50.4946 49.6513 51.4098L49.8349 51.8758L44.4453 54.1463C44.8579 54.9691 45.4996 55.3889 46.3993 55.3889C47.3009 55.3889 47.9262 54.9377 48.3843 54.2536ZM44.1544 52.7781L47.7572 51.2564C47.5591 50.7442 46.9628 50.3873 46.2612 50.3873C45.3614 50.3873 44.109 51.1954 44.1544 52.7781Z" fill="#676667"/>
<path d="M7.17074 51.837V50.0971H12.9348C12.9911 50.4003 13.0202 50.759 13.0202 51.1473C13.0202 52.4527 12.6694 54.0669 11.5388 55.217C10.439 56.3818 9.03392 57.0031 7.17256 57.0031C3.72249 57.0031 0.821381 54.1445 0.821381 50.6351C0.821381 47.1258 3.72249 44.2672 7.17256 44.2672C9.08119 44.2672 10.4409 45.029 11.4624 46.0219L10.2554 47.2496C9.5229 46.5507 8.53041 46.0071 7.17074 46.0071C4.65136 46.0071 2.68093 48.0724 2.68093 50.6351C2.68093 53.1979 4.65136 55.2632 7.17074 55.2632C8.80489 55.2632 9.73557 54.5957 10.3318 53.9892C10.8153 53.4974 11.1334 52.7948 11.2588 51.8351L7.17074 51.837Z" fill="#676667"/>
<path d="M52.1689 46.2727C53.1923 46.1079 54.2281 46.0256 55.2657 46.0266C57.3574 46.0266 58.8497 46.5188 59.8369 47.3849C60.8241 48.2511 61.444 49.5306 61.444 51.2925C61.444 53.0543 60.8573 54.5209 59.8191 55.5224C58.7808 56.5239 57.0079 57.0997 54.8142 57.0997C53.9305 57.105 53.0473 57.0614 52.1689 56.9693V46.2727ZM53.6254 55.8964C54.1151 55.947 54.6075 55.9684 55.0999 55.9604C58.2298 55.9604 59.9032 54.2822 59.9032 51.3417C59.9211 48.7752 58.4135 47.1438 55.332 47.1438C54.7595 47.1348 54.1875 47.1835 53.6254 47.2889V55.8964Z" fill="#676667"/>
<path d="M63.2705 51.6222C63.2705 50.7019 63.2526 49.8997 63.2016 49.1837H64.4898L64.5587 50.7339H64.6071C64.977 49.6857 65.8826 49.0114 66.8673 49.0114C67.0023 49.0136 67.137 49.0251 67.2703 49.0459V50.3845C67.102 50.3557 66.9309 50.3449 66.7601 50.3525C65.7219 50.3525 64.9745 51.0907 64.7857 52.1611C64.751 52.3801 64.7339 52.6014 64.7347 52.823V56.9988H63.2628L63.2705 51.6222Z" fill="#676667"/>
<path d="M70.4513 46.9863C70.4551 47.1047 70.4332 47.2227 70.387 47.3325C70.3407 47.4423 70.2711 47.5415 70.1827 47.6238C70.0942 47.7061 69.9889 47.7696 69.8735 47.8102C69.7581 47.8509 69.6351 47.8678 69.5126 47.8598C69.3938 47.8627 69.2757 47.8419 69.1656 47.7987C69.0555 47.7555 68.9558 47.691 68.8728 47.609C68.7897 47.527 68.7251 47.4294 68.6828 47.3223C68.6406 47.2152 68.6217 47.1008 68.6274 46.9863C68.6242 46.8689 68.6459 46.7521 68.6911 46.6431C68.7363 46.5341 68.804 46.4351 68.8902 46.3522C68.9764 46.2693 69.0792 46.2042 69.1924 46.1609C69.3055 46.1176 69.4266 46.0971 69.5483 46.1004C69.6689 46.0977 69.7889 46.1188 69.9008 46.1625C70.0127 46.2062 70.1141 46.2716 70.1987 46.3546C70.2834 46.4377 70.3495 46.5366 70.3929 46.6452C70.4363 46.7539 70.4562 46.8699 70.4513 46.9863ZM68.8111 56.9988V49.1837H70.2829V56.9988H68.8111Z" fill="#676667"/>
<path d="M73.2981 49.1837L74.8873 53.5612C75.1398 54.2229 75.3578 54.8963 75.5404 55.579H75.5914C75.7751 54.9318 76.0097 54.2871 76.2776 53.5612L77.8515 49.1837H79.3821L76.2113 56.9988H74.8032L71.7242 49.1837H73.2981Z" fill="#676667"/>
<path d="M81.4355 53.3496C81.4687 55.2714 82.7238 56.0564 84.2135 56.0564C84.9825 56.0815 85.7479 55.9438 86.4558 55.6528L86.7236 56.6691C85.8658 57.0157 84.9417 57.1834 84.012 57.1612C81.5172 57.1612 80.0274 55.5642 80.0274 53.2069C80.0274 50.8496 81.4687 49.0065 83.8283 49.0065C86.4889 49.0065 87.1777 51.2359 87.1777 52.6729C87.1826 52.8946 87.1656 53.1163 87.1266 53.3348L81.4355 53.3496ZM85.7542 52.3333C85.7696 51.445 85.3691 50.04 83.7135 50.04C82.2059 50.04 81.5707 51.3466 81.4534 52.3333H85.7542Z" fill="#676667"/>
</svg>
