<svg width="99" height="60" viewBox="0 0 99 60" fill="none" xmlns="http://www.w3.org/2000/svg">
<path d="M8.20625 59.2454C5.80965 59.2454 3.89041 58.51 2.44853 57.0394C1.00665 55.5688 0.285704 53.6555 0.285706 51.2995C0.285704 48.7679 1.0204 46.7486 2.48978 45.2413C3.95917 43.7341 5.95894 42.9805 8.48912 42.9805C10.8228 42.9805 12.7028 43.7121 14.129 45.1755C15.5551 46.6388 16.2682 48.5521 16.2682 50.9154C16.2682 53.4835 15.5374 55.5139 14.0759 57.0065C12.6144 58.4991 10.6578 59.2454 8.20625 59.2454ZM8.34769 44.6487C6.57184 44.6487 5.12996 45.245 4.02203 46.4376C2.9141 47.6302 2.36013 49.196 2.36013 51.1349C2.36013 53.0738 2.90034 54.6341 3.98078 55.8157C5.06121 56.9973 6.46969 57.5882 8.20625 57.5882C10.0606 57.5882 11.5222 57.0248 12.5908 55.898C13.6595 54.7712 14.1938 53.1945 14.1938 51.1678C14.1938 49.0899 13.6752 47.4839 12.638 46.3498C11.6008 45.2157 10.1707 44.6487 8.34769 44.6487Z" fill="#094AB1"/>
<path d="M29.3515 58.9842H27.4185V52.5748C27.4185 50.1896 26.4834 48.997 24.6133 48.997C23.6468 48.997 22.8473 49.3354 22.2147 50.0122C21.5822 50.689 21.2659 51.5432 21.2659 52.5748V58.9842H19.3329V47.7458H21.2659V49.6116H21.3131C22.2246 48.1921 23.5446 47.4824 25.2733 47.4824C26.5934 47.4824 27.6031 47.8794 28.3025 48.6732C29.0018 49.4671 29.3515 50.614 29.3515 52.1139V58.9842Z" fill="#094AB1"/>
<path d="M42.7059 53.815H34.1843C34.2157 55.0661 34.5771 56.0319 35.2686 56.7124C35.9601 57.3928 36.9109 57.733 38.121 57.733C39.4803 57.733 40.7297 57.316 41.8691 56.4819V58.172C40.8083 58.8891 39.4057 59.2476 37.6613 59.2476C35.9562 59.2476 34.6164 58.7373 33.6421 57.7166C32.6677 56.6959 32.1806 55.26 32.1806 53.4089C32.1806 51.6602 32.7129 50.2353 33.7776 49.1342C34.8423 48.033 36.1644 47.4824 37.7438 47.4824C39.3232 47.4824 40.545 47.958 41.4094 48.9092C42.2737 49.8603 42.7059 51.181 42.7059 52.8711V53.815ZM40.7258 52.2895C40.7179 51.2505 40.4488 50.442 39.9184 49.864C39.388 49.286 38.6514 48.997 37.7084 48.997C36.7969 48.997 36.023 49.3006 35.3865 49.9079C34.75 50.5152 34.3571 51.309 34.2078 52.2895H40.7258Z" fill="#094AB1"/>
<path d="M45.8996 58.983V43.2449H50.567C56.5231 43.2449 59.5012 45.8021 59.5012 50.9164C59.5012 53.3455 58.6742 55.2972 57.0201 56.7715C55.3661 58.2458 53.1522 58.983 50.3784 58.983H45.8996ZM47.8797 44.9131V57.3148H50.402C52.6179 57.3148 54.3426 56.7624 55.5763 55.6576C56.8099 54.5528 57.4268 52.987 57.4268 50.9603C57.4268 46.9288 55.1245 44.9131 50.5199 44.9131H47.8797Z" fill="#094AB1"/>
<path d="M68.8599 49.5655C68.522 49.3241 68.0348 49.2034 67.3984 49.2034C66.5733 49.2034 65.8838 49.5655 65.3298 50.2899C64.7759 51.0142 64.4989 52.002 64.4989 53.2531V58.9821H62.5659V47.7437H64.4989V50.0594H64.546C64.8211 49.2692 65.2414 48.6528 65.8072 48.2101C66.3729 47.7675 67.0055 47.5462 67.7048 47.5461C68.2077 47.5462 68.5927 47.5974 68.8599 47.6998V49.5655Z" fill="#094AB1"/>
<path d="M71.948 44.8911C71.6023 44.8912 71.3076 44.7814 71.064 44.5619C70.8204 44.3424 70.6986 44.0644 70.6986 43.7278C70.6986 43.3912 70.8204 43.1114 71.064 42.8882C71.3076 42.6651 71.6023 42.5535 71.948 42.5535C72.3016 42.5535 72.6022 42.6651 72.8497 42.8882C73.0972 43.1114 73.221 43.3912 73.221 43.7278C73.221 44.0497 73.0972 44.3241 72.8497 44.5509C72.6022 44.7777 72.3016 44.8912 71.948 44.8911ZM72.8909 58.983H70.9579V47.7446H72.8909V58.983Z" fill="#094AB1"/>
<path d="M86.2922 47.7462L81.4833 58.9846H79.5857L75.0125 47.7462H77.1341L80.1986 55.9116C80.4265 56.5116 80.5679 57.0347 80.6229 57.481H80.6701C80.7486 56.9176 80.8744 56.4091 81.0472 55.9555L84.2532 47.7462H86.2922Z" fill="#094AB1"/>
<path d="M98.055 53.815H89.5333C89.5648 55.0661 89.9262 56.0319 90.6177 56.7124C91.3092 57.3928 92.2599 57.733 93.47 57.733C94.8294 57.733 96.0788 57.316 97.2182 56.4819V58.172C96.1574 58.8891 94.7548 59.2476 93.0104 59.2476C91.3052 59.2476 89.9655 58.7373 88.9912 57.7166C88.0168 56.6959 87.5296 55.26 87.5296 53.4089C87.5296 51.6602 88.062 50.2353 89.1267 49.1342C90.1914 48.033 91.5135 47.4824 93.0929 47.4824C94.6723 47.4824 95.8941 47.958 96.7585 48.9092C97.6228 49.8603 98.055 51.181 98.055 52.8711V53.815ZM96.0749 52.2895C96.067 51.2505 95.7979 50.442 95.2675 49.864C94.7371 49.286 94.0004 48.997 93.0575 48.997C92.146 48.997 91.372 49.3006 90.7356 49.9079C90.0991 50.5152 89.7062 51.309 89.5569 52.2895H96.0749Z" fill="#094AB1"/>
<path d="M54.6082 21.7047L64.2063 12.1538C62.2125 4.06459 54.2943 -0.811254 46.5203 1.26328C43.0194 2.19749 39.9788 4.45569 37.9918 7.59704C38.1403 7.59314 54.6082 21.7047 54.6082 21.7047Z" fill="#0364B8"/>
<path d="M44.2475 9.39271L44.247 9.39435C42.4131 8.2124 40.298 7.58766 38.1407 7.59071C38.0908 7.59071 38.0418 7.594 37.9921 7.59461C31.5753 7.67733 26.4378 13.1572 26.5172 19.8342C26.546 22.2562 27.2733 24.6134 28.6048 26.6002L42.9842 24.7263L54.0086 15.4765L44.2475 9.39271Z" fill="#0078D4"/>
<path d="M64.207 12.1516C63.996 12.137 63.784 12.1268 63.5694 12.1268C62.2818 12.1255 61.0076 12.3992 59.8257 12.9309L59.8254 12.9298L54.009 15.4768L60.4212 23.7185L71.8846 26.6181C74.3584 21.8394 72.6408 15.8788 68.0483 13.3047C66.8616 12.6396 65.5519 12.2464 64.207 12.1517V12.1516H64.207Z" fill="#1490DF"/>
<path d="M28.6052 26.6048C30.7764 29.853 34.3387 31.7888 38.1411 31.7867H63.5694C67.043 31.7877 70.2366 29.8043 71.8845 26.6226L54.0089 15.4811L28.6052 26.6048Z" fill="#28A8EA"/>
</svg>
