<svg width="96" height="46" viewBox="0 0 96 46" fill="none" xmlns="http://www.w3.org/2000/svg">
<g style="mix-blend-mode:luminosity">
<path fill-rule="evenodd" clip-rule="evenodd" d="M5.38982 35.9559C3.03391 35.9559 1.12407 37.8632 1.12407 40.216C1.12407 42.5687 3.03391 44.476 5.38982 44.476C7.74573 44.476 9.65557 42.5687 9.65557 40.216C9.65557 37.8632 7.74573 35.9559 5.38982 35.9559ZM0.0302277 40.216C0.0302277 37.2599 2.4298 34.8636 5.38982 34.8636C8.34984 34.8636 10.7494 37.2599 10.7494 40.216C10.7494 43.172 8.34984 45.5684 5.38982 45.5684C2.4298 45.5684 0.0302277 43.172 0.0302277 40.216Z" fill="#1D2D44"/>
<path fill-rule="evenodd" clip-rule="evenodd" d="M63.9131 35.9555C61.5569 35.9555 59.6469 37.863 59.6469 40.216C59.6469 42.569 61.5569 44.4764 63.9131 44.4764C66.2692 44.4764 68.1793 42.569 68.1793 40.216C68.1793 37.863 66.2692 35.9555 63.9131 35.9555ZM58.5531 40.216C58.5531 37.2597 60.9528 34.8631 63.9131 34.8631C66.8734 34.8631 69.2731 37.2597 69.2731 40.216C69.2731 43.1723 66.8734 45.5688 63.9131 45.5688C60.9528 45.5688 58.5531 43.1723 58.5531 40.216Z" fill="#1D2D44"/>
<path fill-rule="evenodd" clip-rule="evenodd" d="M13.1563 41.9352V35.3648H14.2501V41.9352C14.2501 43.3378 15.3887 44.4745 16.7929 44.4745C18.1979 44.4745 19.336 43.3378 19.336 41.9352V35.3648C19.336 35.3648 19.336 35.3648 19.883 35.3648C20.4299 35.3648 20.4299 35.3648 20.4299 35.3648V41.9351C20.4299 43.9411 18.8019 45.5669 16.7929 45.5669C14.7847 45.5669 13.1563 43.9412 13.1563 41.9352Z" fill="#1D2D44"/>
<path fill-rule="evenodd" clip-rule="evenodd" d="M19.336 41.9352V35.3648H20.4299V41.9351C20.4299 43.3377 21.5684 44.4745 22.9731 44.4745C24.3777 44.4745 25.5162 43.3378 25.5162 41.9352V35.3648C25.5162 35.3648 25.5162 35.3648 26.0632 35.3648C26.6101 35.3648 26.6101 35.3648 26.6101 35.3648V41.9351C26.6101 43.9412 24.9816 45.5669 22.9731 45.5669C20.9645 45.5669 19.336 43.9413 19.336 41.9352Z" fill="#1D2D44"/>
<path fill-rule="evenodd" clip-rule="evenodd" d="M53.4676 41.9351V26.6249H54.5614V41.9351C54.5614 43.3378 55.6996 44.4745 57.1041 44.4745V45.5669C55.0955 45.5669 53.4676 43.9411 53.4676 41.9351Z" fill="#1D2D44"/>
<path fill-rule="evenodd" clip-rule="evenodd" d="M34.487 35.9114C32.131 35.9114 30.221 37.8188 30.221 40.1716V45.022H29.1272V40.1716C29.1272 37.2155 31.5269 34.819 34.487 34.819C37.4475 34.819 39.8473 37.2155 39.8473 40.1716V45.0218C39.8473 45.0218 39.8473 45.022 39.3003 45.022C38.7534 45.022 38.7534 45.022 38.7534 45.0219V40.1716C38.7534 37.8189 36.8434 35.9114 34.487 35.9114Z" fill="#1D2D44"/>
<path fill-rule="evenodd" clip-rule="evenodd" d="M71.3504 40.216V35.3648H72.4443V40.216C72.4443 42.5684 74.3542 44.4758 76.7103 44.4758C79.0663 44.4758 80.9767 42.5683 80.9767 40.216V35.365C80.9767 35.365 80.9767 35.3648 81.5236 35.3648C82.0705 35.3648 82.0705 35.3648 82.0705 35.3648V40.216C82.0705 43.1718 79.6702 45.5682 76.7103 45.5682C73.7502 45.5682 71.3504 43.1717 71.3504 40.216Z" fill="#1D2D44"/>
<path fill-rule="evenodd" clip-rule="evenodd" d="M42.1793 37.3395C42.1793 32.7946 45.869 29.1105 50.4197 29.1105V30.2028C46.473 30.2028 43.2732 33.398 43.2732 37.3395C43.2732 41.281 46.473 44.4758 50.4197 44.4758V45.5682C45.869 45.5682 42.1793 41.8845 42.1793 37.3395Z" fill="#1D2D44"/>
<path fill-rule="evenodd" clip-rule="evenodd" d="M93.9436 26.6249H95.0374V35.4014H93.9436V26.6249Z" fill="#1D2D44"/>
<path fill-rule="evenodd" clip-rule="evenodd" d="M95.0372 35.3981L94.4903 35.4015C95.0372 35.3981 95.0372 35.3981 95.0372 35.3981V35.3984L95.0384 35.6114C95.0392 35.7482 95.0402 35.9454 95.0414 36.1873C95.0437 36.671 95.0465 37.3331 95.0484 38.0469C95.0522 39.4719 95.0522 41.1108 95.0371 41.9427C95.0186 42.9536 94.4894 43.8571 93.8057 44.4941C93.1261 45.1274 92.2211 45.5656 91.349 45.5656H89.6322C86.6721 45.5656 84.2723 43.1691 84.2723 40.2134C84.2723 37.2574 86.6718 34.8609 89.6318 34.8607C89.6319 34.8607 89.632 34.8607 89.6321 34.8607L95.0338 34.8547L95.0372 35.3981ZM93.9463 35.9483L89.6321 35.9531C87.2761 35.9531 85.3661 37.8606 85.3661 40.2134C85.3661 42.5657 87.2761 44.4732 89.6321 44.4732H91.349C91.875 44.4732 92.5255 44.193 93.0595 43.6955C93.5894 43.2017 93.9317 42.5618 93.9434 41.9228C93.9583 41.1045 93.9583 39.4778 93.9546 38.0498C93.9527 37.337 93.9499 36.6757 93.9476 36.1926C93.9471 36.105 93.9467 36.0233 93.9463 35.9483Z" fill="#1D2D44"/>
<path d="M59.9442 8.39255C56.1345 8.39255 52.7304 10.1439 50.4817 12.8913C49.6501 11.6086 49.1667 10.0759 49.1667 8.4294C49.1667 3.91838 52.7954 0.261475 57.2716 0.261475C61.7479 0.261475 65.3766 3.91838 65.3766 8.4294C65.3766 8.83587 65.3471 9.23541 65.2903 9.62596C63.6745 8.83573 61.8607 8.39255 59.9442 8.39255Z" fill="#1D2D44"/>
<path d="M66.3007 10.1808C66.9254 10.5633 67.5135 11.0004 68.0585 11.4857C68.9668 12.2944 69.7552 13.2366 70.3935 14.282C71.5474 13.7647 72.8183 13.4644 74.155 13.4325C73.5232 9.60526 70.251 6.67784 66.2887 6.61572C66.4042 7.20224 66.4648 7.8087 66.4648 8.42941C66.4648 9.02819 66.4084 9.6137 66.3007 10.1808Z" fill="#1D2D44"/>
<path d="M49.7927 13.8181C48.9143 12.5822 48.3301 11.1195 48.1432 9.53406C47.9651 9.53701 47.7884 9.5453 47.6131 9.5588C46.7731 9.62349 45.9661 9.80758 45.209 10.0942C44.6599 10.3021 44.1371 10.564 43.6468 10.8733C42.3668 11.6809 41.3087 12.8125 40.5855 14.1541C40.3269 14.6339 40.1111 15.1407 39.9433 15.6691C39.6736 16.5184 39.528 17.4236 39.528 18.3631C39.528 21.0216 40.6937 23.4056 42.5382 25.0245C43.3351 23.2521 44.9955 21.9579 46.9783 21.6871C47.2195 21.6542 47.4655 21.6364 47.7152 21.6347C47.6946 21.3418 47.6841 21.0461 47.6841 20.7479C47.6841 18.1795 48.4618 15.7943 49.7927 13.8181Z" fill="#1D2D44"/>
<path d="M47.8414 22.732C47.8124 22.7315 47.7833 22.7312 47.7542 22.7312C47.5624 22.7312 47.3732 22.743 47.1875 22.7658C45.4673 22.9771 44.038 24.138 43.4314 25.7126C43.2947 26.0676 43.1997 26.4437 43.1527 26.8346C43.1303 27.0208 43.1188 27.2104 43.1188 27.4026C43.1188 28.4829 43.4826 29.4776 44.0936 30.2689C44.9418 31.3674 46.2661 32.0741 47.7542 32.0741C49.4118 32.0741 50.8662 31.1972 51.6856 29.8787C49.686 28.0412 48.2922 25.5457 47.8414 22.732Z" fill="#1D2D44"/>
<path d="M49.0746 4.23073C48.521 3.9797 47.907 3.84004 47.2606 3.84004C44.8168 3.84004 42.8357 5.83655 42.8357 8.29938C42.8357 8.86539 42.9403 9.40678 43.1312 9.90495C44.5755 9.00835 46.2668 8.47694 48.0785 8.43844L48.0785 8.4294C48.0785 6.918 48.4376 5.49113 49.0746 4.23073Z" fill="#1D2D44"/>
<path d="M81.2306 30.5023C83.0881 28.6969 84.2434 26.1627 84.2434 23.3565C84.2434 22.9932 84.2241 22.6343 84.1863 22.2811C84.2055 22.2808 84.2248 22.2807 84.2441 22.2807C86.8043 22.2807 88.8797 24.3723 88.8797 26.9524C88.8797 29.5325 86.8043 31.624 84.2441 31.624C83.0936 31.624 82.041 31.2016 81.2306 30.5023Z" fill="#1D2D44"/>
<path d="M68.5923 29.5049C68.511 29.5864 68.4285 29.6668 68.345 29.746C69.9176 31.2583 72.0477 32.1868 74.393 32.1868C79.2323 32.1868 83.1552 28.2334 83.1552 23.3565C83.1552 18.4797 79.2323 14.5262 74.393 14.5262C73.1608 14.5262 71.9881 14.7825 70.9244 15.2451C71.7437 16.9022 72.2045 18.7708 72.2045 20.7479C72.2045 24.1595 70.8321 27.248 68.6134 29.4837C68.6064 29.4908 68.5993 29.4978 68.5923 29.5049Z" fill="#1D2D44"/>
<path d="M38.816 15.6368C34.4928 15.8115 31.0413 19.3987 31.0413 23.7982C31.0413 28.3094 34.6701 31.9664 39.1465 31.9664C40.618 31.9664 41.998 31.5712 43.1875 30.8804C42.4614 29.9135 42.0306 28.7087 42.0306 27.4026C42.0306 26.9691 42.0781 26.5466 42.1681 26.1404C39.8964 24.3219 38.4398 21.5139 38.4398 18.3631C38.4398 17.4176 38.571 16.503 38.816 15.6368Z" fill="#1D2D44"/>
<path d="M71.1163 20.7479C71.1163 26.9653 66.1142 32.0054 59.9442 32.0054C53.7742 32.0054 48.7723 26.9653 48.7723 20.7479C48.7723 14.5297 53.7744 9.48918 59.9442 9.48918C66.114 9.48918 71.1163 14.5297 71.1163 20.7479Z" fill="#1D2D44"/>
</g>
</svg>
