<svg width="98" height="63" viewBox="0 0 98 63" fill="none" xmlns="http://www.w3.org/2000/svg">
<path d="M65.4539 60.76H67.2288C71.0783 60.76 73.6831 57.3846 73.6831 51.6314C73.6831 45.7357 70.9323 43.7629 67.4977 43.7629H65.4539V60.76ZM67.4977 44.7381C70.2254 44.7381 72.446 46.4708 72.446 51.7289C72.446 56.9345 70.3484 59.7923 67.2518 59.7923H66.6679V44.7381H67.4977ZM76.4877 46.4258C76.9026 46.4258 77.2637 46.0957 77.2637 45.6682C77.2637 45.2631 76.9026 44.8806 76.4877 44.8806C76.0497 44.8806 75.7039 45.2631 75.7039 45.6682C75.7039 46.0957 76.0497 46.4258 76.4877 46.4258ZM75.9037 48.781V60.76H77.0486V48.781H75.9037ZM81.4053 61C83.0111 61 84.4019 59.9049 84.4019 58.0071C84.4019 54.6542 80.1374 53.6566 80.1374 51.0613C80.1374 50.0187 80.9442 49.4486 81.8432 49.4486C82.6961 49.4486 83.3031 49.7562 83.841 50.3262L84.156 49.3061C83.7488 48.9686 82.9881 48.541 81.7971 48.541C80.4602 48.541 79.1155 49.3961 79.1155 51.2038C79.1155 54.2492 83.3339 55.4118 83.3339 58.1497C83.3339 59.1698 82.6039 60.0999 81.3822 60.0999C80.2143 60.0999 79.6303 59.6948 79.0464 59.1923L78.8005 60.1674C79.2615 60.5499 80.0452 61 81.4053 61ZM87.4984 54.5567L91.7552 60.76H93L88.6664 54.3467L92.708 48.781H91.6092L87.4984 54.4142V43.7629H86.3536V60.76H87.4984V54.5567Z" fill="black"/>
<path d="M13.1376 60.7597V54.744L17.6963 42H15.7614L12.2011 52.1787L9.11295 43.7627H7L11.1949 54.6765V60.7597H13.1376Z" fill="#FF0000"/>
<path d="M21.5275 58.4122C21.1792 58.9297 20.5214 59.3573 19.8557 59.3573C18.8728 59.3573 18.4084 58.4572 18.4084 57.077C18.4084 55.5318 18.927 54.5117 21.3031 54.5117H21.5275V58.4122ZM23.416 58.0521V52.419C23.416 49.5161 22.2086 48.616 20.026 48.616C18.7799 48.616 17.6499 49.1111 17.0849 49.5611L17.4487 51.2038C18.0911 50.6563 18.927 50.1612 19.9022 50.1612C20.9857 50.1612 21.5275 50.8213 21.5275 52.3965V53.1091H21.2566C17.797 53.1091 16.4425 54.7217 16.4425 57.2945C16.4425 59.6498 17.6499 60.9325 19.4146 60.9325C20.4981 60.9325 21.1792 60.4749 21.721 59.8148H21.8449C21.8681 60.1224 21.9455 60.5049 22.0151 60.76H23.6327C23.5399 60.1899 23.416 59.1923 23.416 58.0521ZM27.7116 51.4664C28.1528 50.8738 28.8339 50.2812 29.6465 50.2812C30.3818 50.2812 30.7998 50.5888 30.7998 51.4889V60.76H32.7347V51.3238C32.7347 49.4936 31.8756 48.616 30.258 48.616C29.1047 48.616 28.176 49.3511 27.8277 49.8012H27.7116V48.7585H25.7921V60.76H27.7116V51.4664ZM38.377 60.9325C39.3832 60.9325 40.072 60.4749 40.6138 59.8148H40.7376L40.8847 60.76H42.3088V43.7629H40.3893V49.0661C40.0256 48.8035 39.4141 48.616 38.8259 48.616C36.3414 48.616 34.6232 50.7763 34.6232 55.2243C34.6232 58.9297 35.9544 60.9325 38.377 60.9325ZM40.3893 58.4347C40.072 58.9072 39.5612 59.3573 38.6014 59.3573C37.2005 59.3573 36.6665 57.6471 36.6665 54.8418C36.6665 52.3965 37.4018 50.1387 38.942 50.1387C39.5844 50.1387 40.0023 50.3262 40.3893 50.7088V58.4347ZM51.3101 59.9574L50.869 58.5322C50.3813 58.8622 49.5919 59.3348 48.5161 59.3348C46.9913 59.3348 46.2096 57.9096 46.2096 55.2018H51.3566V54.1742C51.3566 50.1087 50.0098 48.616 47.9511 48.616C45.3273 48.616 44.2205 51.4214 44.2205 55.2693C44.2205 58.9597 45.7917 60.9325 48.3381 60.9325C49.5687 60.9325 50.5284 60.5499 51.3101 59.9574ZM47.9511 50.1387C49.0501 50.1387 49.3984 51.6314 49.3984 53.6791H46.2328C46.3567 51.5414 46.7746 50.1387 47.9511 50.1387ZM57.8115 48.781L56.1165 53.1316L54.5221 48.781H52.5407L54.8704 54.5567L52.2931 60.76H54.1816L56.0469 55.8169L57.9586 60.76H59.9477L57.3703 54.3917L59.6768 48.781H57.8115Z" fill="black"/>
<path d="M73.6244 11.8916C71.9091 8.17568 66.7329 7.60213 60.898 7.81505C56.4267 7.97962 52.7263 4.09472 44.9113 7.72278C37.0954 11.3504 37.6565 16.6916 34.6384 20.0043C30.6993 24.3261 27.7877 28.6541 29.5026 32.37L73.6244 11.8916Z" fill="black"/>
<path d="M73.6244 11.8914C71.882 8.11561 60.1994 8.79162 48.0155 14.4464C35.8312 20.0994 27.7154 28.4991 29.5021 32.3698C31.6916 37.1117 43.8587 37.4865 56.0434 31.8318C68.226 26.1779 75.8148 16.6373 73.6244 11.8914Z" fill="#0077FF"/>
<path d="M63.7502 20.8372C62.8329 18.8473 57.375 19.4231 51.5597 22.1236C45.7448 24.8219 41.7756 28.6216 42.6925 30.6089C43.6107 32.597 49.0685 32.0226 54.8834 29.3234C60.6988 26.6242 64.6689 22.824 63.7502 20.8372Z" fill="white"/>
</svg>
