<svg width="87" height="57" viewBox="0 0 87 57" fill="none" xmlns="http://www.w3.org/2000/svg">
<path d="M43.5647 0.679565C34.603 0.679565 27.0071 6.62634 24.6529 14.6835C22.6069 10.4099 18.173 7.41581 13.066 7.41581C6.04257 7.41581 0.269165 13.0669 0.269165 19.9415C0.269165 26.8161 6.04257 32.4697 13.066 32.4697C18.173 32.4697 22.6069 29.4738 24.6529 25.1994C27.0071 33.2572 34.603 39.206 43.5647 39.206C52.4602 39.206 60.0174 33.347 62.4318 25.38C64.5156 29.5574 68.8946 32.4697 73.9291 32.4697C80.9525 32.4697 86.7286 26.8161 86.7286 19.9415C86.7286 13.0669 80.9525 7.41581 73.9291 7.41581C68.8946 7.41581 64.5156 10.3263 62.4318 14.5029C60.0174 6.53663 52.4602 0.679565 43.5647 0.679565ZM43.5647 8.03243C50.3299 8.03243 55.7342 13.3197 55.7342 19.9415C55.7342 26.5633 50.3299 31.8531 43.5647 31.8531C36.7997 31.8531 31.3979 26.5633 31.3979 19.9415C31.3979 13.3197 36.7997 8.03243 43.5647 8.03243ZM13.066 14.7687C16.0299 14.7687 18.3534 17.0403 18.3534 19.9415C18.3534 22.8426 16.0299 25.1169 13.066 25.1169C10.102 25.1169 7.78118 22.8426 7.78118 19.9415C7.78118 17.0403 10.102 14.7687 13.066 14.7687ZM73.9291 14.7687C76.8931 14.7687 79.2165 17.0403 79.2165 19.9415C79.2165 22.8426 76.8931 25.1169 73.9291 25.1169C70.9652 25.1169 68.6444 22.8426 68.6444 19.9415C68.6444 17.0403 70.9652 14.7687 73.9291 14.7687Z" fill="#0082C9"/>
<path d="M22.367 48.5581C24.4738 48.5581 25.6522 50.0416 25.6522 52.2669C25.6522 52.4788 25.4737 52.6554 25.2594 52.6554H19.5818C19.6175 54.6335 21.0101 55.7638 22.617 55.7638C23.6168 55.7638 24.331 55.3399 24.6881 55.0573C24.9023 54.916 25.0809 54.9514 25.188 55.1633L25.2951 55.3399C25.4023 55.5165 25.3666 55.6931 25.188 55.8344C24.7595 56.1523 23.8311 56.6821 22.5813 56.6821C20.2602 56.6821 18.4748 55.022 18.4748 52.6201C18.5105 50.0769 20.2245 48.5581 22.367 48.5581ZM24.5453 51.8783C24.4738 50.2535 23.474 49.4411 22.3313 49.4411C21.0101 49.4411 19.8674 50.2889 19.6175 51.8783H24.5453Z" fill="#0082C9"/>
<path d="M36.3756 46.9687C36.3756 46.7214 36.5185 46.5801 36.7684 46.5801H37.0541C37.3041 46.5801 37.4112 46.7214 37.4112 46.9687V48.8054H39.0181C39.2681 48.8054 39.4109 48.9467 39.4109 49.1939V49.2999C39.4109 49.5472 39.2681 49.6531 39.0181 49.6531H37.4112V53.5386C37.4112 55.34 38.5182 55.5519 39.1252 55.5872C39.4466 55.6226 39.5537 55.6932 39.5537 55.9758V56.1877C39.5537 56.435 39.4466 56.5409 39.1252 56.5409C37.4112 56.5409 36.3756 55.5166 36.3756 53.6798V46.9687Z" fill="#0082C9"/>
<path d="M44.5527 48.5581C45.9096 48.5581 46.7666 49.1232 47.1594 49.4411C47.3379 49.5824 47.3736 49.759 47.1951 49.971L47.088 50.1476C46.9451 50.3595 46.7666 50.3595 46.5523 50.2182C46.1953 49.971 45.5168 49.5118 44.5884 49.5118C42.8744 49.5118 41.5174 50.7834 41.5174 52.6554C41.5174 54.4922 42.8744 55.7638 44.5884 55.7638C45.6953 55.7638 46.4452 55.2693 46.8023 54.9514C47.0166 54.8101 47.1594 54.8454 47.3022 55.0573L47.4094 55.1986C47.5165 55.4105 47.4808 55.5518 47.3022 55.7284C46.9094 56.0463 45.9453 56.7175 44.517 56.7175C42.1959 56.7175 40.4105 55.0573 40.4105 52.6554C40.4462 50.2535 42.2316 48.5581 44.5527 48.5581Z" fill="#0082C9"/>
<path d="M49.302 46.0502C49.302 45.803 49.1591 45.6617 49.4091 45.6617H49.6948C49.9447 45.6617 50.3375 45.803 50.3375 46.0502V54.4922C50.3375 55.4812 50.8017 55.5872 51.1588 55.6225C51.3374 55.6225 51.4802 55.7285 51.4802 55.9757V56.223C51.4802 56.4703 51.3731 56.6115 51.0874 56.6115C50.4446 56.6115 49.302 56.3996 49.302 54.7042V46.0502Z" fill="#0082C9"/>
<path d="M56.6224 48.5581C58.9078 48.5581 60.7646 50.2889 60.7646 52.5848C60.7646 54.916 58.9078 56.6821 56.6224 56.6821C54.3371 56.6821 52.4802 54.916 52.4802 52.5848C52.4802 50.2889 54.3371 48.5581 56.6224 48.5581ZM56.6224 55.7638C58.3007 55.7638 59.6577 54.4215 59.6577 52.5848C59.6577 50.8187 58.3007 49.5118 56.6224 49.5118C54.9441 49.5118 53.5515 50.854 53.5515 52.5848C53.5872 54.3862 54.9441 55.7638 56.6224 55.7638Z" fill="#0082C9"/>
<path d="M74.4407 48.5582C76.3332 48.5582 77.0117 50.1124 77.0117 50.1124H77.0474C77.0474 50.1124 77.0117 49.8651 77.0117 49.5119V46.015C77.0117 45.7678 76.9046 45.6265 77.1545 45.6265H77.4402C77.6902 45.6265 78.083 45.7678 78.083 46.015V56.0818C78.083 56.3291 77.9758 56.4704 77.7259 56.4704H77.4759C77.226 56.4704 77.0831 56.3644 77.0831 56.1171V55.5167C77.0831 55.2341 77.1545 55.0221 77.1545 55.0221H77.1188C77.1188 55.0221 76.4404 56.647 74.405 56.647C72.2982 56.647 70.977 54.9868 70.977 52.5849C70.9055 50.183 72.3696 48.5582 74.4407 48.5582ZM74.4764 55.7639C75.7976 55.7639 77.0117 54.8455 77.0117 52.6203C77.0117 51.0308 76.1904 49.5119 74.5121 49.5119C73.1195 49.5119 71.9768 50.6422 71.9768 52.6203C72.0125 54.5276 73.0123 55.7639 74.4764 55.7639Z" fill="#0082C9"/>
<path d="M9.27258 56.5056H9.55825C9.80821 56.5056 9.95105 56.3643 9.95105 56.117V48.5326C9.95105 47.3316 11.2723 46.4741 12.772 46.4741C14.2718 46.4741 15.593 47.3316 15.593 48.5326V56.117C15.593 56.3643 15.7358 56.5056 15.9858 56.5056H16.2715C16.5214 56.5056 16.6286 56.3643 16.6286 56.117V48.4875C16.6286 46.4741 14.5932 45.4851 12.7363 45.4851C10.9509 45.4851 8.9155 46.4741 8.9155 48.4875V56.117C8.9155 56.3643 9.02262 56.5056 9.27258 56.5056Z" fill="#0082C9"/>
<path d="M68.8703 48.7347H68.5847C68.3347 48.7347 68.1919 48.876 68.1919 49.1232V53.3972C68.1919 54.5981 67.4063 55.6931 65.8708 55.6931C64.3711 55.6931 63.5498 54.5981 63.5498 53.3972V49.1232C63.5498 48.876 63.4069 48.7347 63.157 48.7347H62.8713C62.6213 48.7347 62.5142 48.876 62.5142 49.1232V53.6798C62.5142 55.6931 64.014 56.6822 65.8708 56.6822C67.7277 56.6822 69.2274 55.6931 69.2274 53.6798V49.1232C69.2631 48.876 69.1203 48.7347 68.8703 48.7347Z" fill="#0082C9"/>
<path d="M33.5217 48.6768C33.4342 48.6906 33.3503 48.7484 33.2699 48.8431L30.7431 51.822L28.217 48.8431C28.1367 48.7484 28.0457 48.6966 27.9513 48.6885C27.8569 48.6805 27.759 48.716 27.6632 48.7955L27.4442 48.9769C27.2528 49.1358 27.2627 49.3118 27.4233 49.5012L30.068 52.6181L28.3126 54.6871C28.3112 54.6886 28.3104 54.6903 28.3091 54.6919L27.4233 55.7357C27.2626 55.9251 27.2806 56.1245 27.4721 56.2835L27.6911 56.4642C27.8826 56.6231 28.0563 56.5832 28.217 56.3938L30.7438 53.4149L32.3814 55.3459C32.3824 55.3472 32.3838 55.3481 32.3849 55.3494L33.2706 56.3938C33.4313 56.5833 33.6322 56.6004 33.8237 56.4414L34.0427 56.26C34.2342 56.1011 34.2243 55.9251 34.0636 55.7357L31.4189 52.6188L33.1744 50.5498C33.1757 50.5483 33.1765 50.5466 33.1779 50.545L34.0636 49.5012C34.2243 49.3118 34.2063 49.1124 34.0148 48.9535L33.7958 48.772C33.7001 48.6925 33.6092 48.663 33.5217 48.6768Z" fill="#0082C9"/>
</svg>
