<svg width="129" height="33" viewBox="0 0 129 33" fill="none" xmlns="http://www.w3.org/2000/svg">
<path d="M19.1157 15.6607C19.1296 14.5824 19.416 13.5252 19.9483 12.5874C20.4806 11.6496 21.2414 10.8616 22.16 10.2969C21.5764 9.46342 20.8066 8.77753 19.9116 8.29367C19.0165 7.80981 18.021 7.54131 17.0041 7.5095C14.8348 7.2818 12.7317 8.80757 11.6263 8.80757C10.4995 8.80757 8.79746 7.5321 6.9647 7.56981C5.77921 7.60811 4.62386 7.95284 3.61122 8.57042C2.59858 9.18799 1.76318 10.0573 1.18641 11.0938C-1.312 15.4194 0.551591 21.7766 2.94486 25.2731C4.14226 26.9852 5.54169 28.8977 7.3728 28.8299C9.16466 28.7556 9.83388 27.6873 11.9968 27.6873C14.1396 27.6873 14.7675 28.8299 16.6358 28.7868C18.5585 28.7556 19.77 27.067 20.9253 25.3387C21.7857 24.1187 22.4477 22.7704 22.8869 21.3437C21.7698 20.8712 20.8166 20.0804 20.1459 19.0698C19.4753 18.0592 19.117 16.8735 19.1157 15.6607Z" fill="white"/>
<path d="M15.5868 5.20999C16.6352 3.95148 17.1517 2.33387 17.0266 0.700684C15.425 0.868907 13.9455 1.6344 12.883 2.84463C12.3635 3.43586 11.9656 4.12368 11.7121 4.86877C11.4585 5.61386 11.3544 6.40162 11.4055 7.187C12.2066 7.19524 12.9991 7.02161 13.7234 6.67916C14.4477 6.33671 15.0848 5.83437 15.5868 5.20999Z" fill="white"/>
<path d="M41.766 24.4956H35.6512L34.1828 28.8316H31.5928L37.3846 12.7896H40.0755L45.8673 28.8316H43.2332L41.766 24.4956ZM36.2845 22.4948H41.1315L38.7421 15.4578H38.6752L36.2845 22.4948Z" fill="white"/>
<path d="M58.3756 22.9844C58.3756 26.6189 56.4303 28.9541 53.4947 28.9541C52.751 28.993 52.0114 28.8217 51.3606 28.4598C50.7098 28.0979 50.174 27.56 49.8147 26.9078H49.7591V32.7009H47.3584V17.1358H49.6822V19.0811H49.7264C50.1023 18.432 50.6471 17.8969 51.3028 17.5328C51.9586 17.1687 52.7008 16.9892 53.4505 17.0134C56.4189 17.0134 58.3756 19.3599 58.3756 22.9844ZM55.908 22.9844C55.908 20.6164 54.6843 19.0596 52.8172 19.0596C50.9829 19.0596 49.7491 20.6492 49.7491 22.9844C49.7491 25.341 50.9829 26.9192 52.8172 26.9192C54.6843 26.9192 55.908 25.3738 55.908 22.9844Z" fill="white"/>
<path d="M71.2486 22.9843C71.2486 26.6189 69.3032 28.954 66.3676 28.954C65.6239 28.9929 64.8844 28.8216 64.2335 28.4597C63.5827 28.0979 63.047 27.56 62.6876 26.9078H62.6321V32.7009H60.2313V17.1358H62.5551V19.0811H62.5993C62.9751 18.432 63.5199 17.8969 64.1757 17.5328C64.8315 17.1687 65.5737 16.9892 66.3234 17.0134C69.2919 17.0134 71.2486 19.3599 71.2486 22.9843ZM68.7809 22.9843C68.7809 20.6164 67.5572 19.0596 65.6901 19.0596C63.8558 19.0596 62.622 20.6492 62.622 22.9843C62.622 25.3409 63.8558 26.9192 65.6901 26.9192C67.5572 26.9192 68.781 25.3737 68.781 22.9843H68.7809Z" fill="white"/>
<path d="M79.7566 24.362C79.9345 25.9529 81.4799 26.9974 83.5918 26.9974C85.6153 26.9974 87.0712 25.9528 87.0712 24.5184C87.0712 23.2732 86.1931 22.5277 84.1141 22.0167L82.035 21.5159C79.0893 20.8044 77.7217 19.4267 77.7217 17.1913C77.7217 14.4234 80.1338 12.5222 83.559 12.5222C86.9487 12.5222 89.2726 14.4234 89.3508 17.1913H86.9273C86.7822 15.5903 85.4588 14.624 83.5249 14.624C81.5909 14.624 80.2675 15.6017 80.2675 17.0247C80.2675 18.1589 81.1128 18.8262 83.1805 19.3371L84.9479 19.7711C88.2393 20.5495 89.6069 21.8716 89.6069 24.2181C89.6069 27.2193 87.2162 29.0991 83.4139 29.0991C79.8562 29.0991 77.4542 27.2635 77.2991 24.3619L79.7566 24.362Z" fill="white"/>
<path d="M94.7881 14.3679V17.1358H97.0122V19.037H94.7881V25.4848C94.7881 26.4865 95.2334 26.9532 96.2111 26.9532C96.4752 26.9486 96.7388 26.9301 97.0009 26.8977V28.7875C96.5613 28.8696 96.1145 28.9068 95.6674 28.8985C93.2995 28.8985 92.376 28.0091 92.376 25.7408V19.037H90.6754V17.1358H92.376V14.3679H94.7881Z" fill="white"/>
<path d="M98.3003 22.9843C98.3003 19.3044 100.468 16.9919 103.847 16.9919C107.238 16.9919 109.396 19.3043 109.396 22.9843C109.396 26.6744 107.25 28.9768 103.847 28.9768C100.446 28.9768 98.3003 26.6744 98.3003 22.9843ZM106.95 22.9843C106.95 20.46 105.793 18.9701 103.847 18.9701C101.902 18.9701 100.746 20.4713 100.746 22.9843C100.746 25.5188 101.902 26.9974 103.847 26.9974C105.793 26.9974 106.949 25.5188 106.949 22.9843H106.95Z" fill="white"/>
<path d="M111.375 17.1359H113.665V19.1266H113.72C113.875 18.5049 114.239 17.9554 114.752 17.5706C115.264 17.1858 115.893 16.9891 116.534 17.0135C116.81 17.0125 117.086 17.0426 117.356 17.1031V19.3487C117.007 19.2419 116.642 19.1929 116.277 19.2036C115.929 19.1894 115.581 19.2509 115.258 19.3838C114.935 19.5168 114.645 19.7179 114.408 19.9736C114.17 20.2292 113.99 20.5333 113.881 20.8648C113.772 21.1964 113.736 21.5477 113.776 21.8945V28.8318H111.375L111.375 17.1359Z" fill="white"/>
<path d="M128.425 25.3965C128.102 27.5197 126.034 28.9768 123.389 28.9768C119.986 28.9768 117.875 26.6971 117.875 23.0399C117.875 19.3712 119.998 16.9919 123.288 16.9919C126.524 16.9919 128.559 19.2148 128.559 22.7611V23.5836H120.298V23.7287C120.26 24.1591 120.314 24.5927 120.456 25.0007C120.599 25.4088 120.826 25.7818 121.124 26.0952C121.421 26.4085 121.782 26.6549 122.182 26.8181C122.582 26.9812 123.013 27.0574 123.444 27.0415C124.012 27.0947 124.581 26.9633 125.068 26.6669C125.554 26.3705 125.932 25.9249 126.145 25.3964L128.425 25.3965ZM120.309 21.9057H126.157C126.178 21.5187 126.12 21.1314 125.984 20.7681C125.849 20.4048 125.64 20.0734 125.371 19.7947C125.102 19.516 124.778 19.2959 124.419 19.1484C124.061 19.0008 123.676 18.9289 123.288 18.9373C122.897 18.9349 122.509 19.01 122.148 19.1583C121.786 19.3065 121.457 19.5249 121.18 19.8009C120.903 20.0769 120.684 20.405 120.534 20.7662C120.385 21.1275 120.308 21.5148 120.309 21.9057V21.9057Z" fill="white"/>
<path d="M24.5172 3.69677C24.5172 1.76171 25.5465 0.566398 27.2047 0.566398C27.8024 0.536798 28.3893 0.73301 28.849 1.11608C29.3087 1.49916 29.6075 2.04108 29.6862 2.63427H28.7633C28.6859 2.28273 28.4874 1.96959 28.2025 1.74957C27.9176 1.52956 27.5644 1.41668 27.2047 1.43066C26.1334 1.43066 25.4635 2.30322 25.4635 3.69677C25.4635 5.08642 26.1334 5.95849 27.2086 5.95849C27.5552 5.98442 27.8999 5.88884 28.1836 5.68817C28.4674 5.4875 28.6723 5.19427 28.7633 4.85888H29.6862C29.5961 5.43794 29.2911 5.96177 28.8318 6.3258C28.3726 6.68982 27.7929 6.86728 27.2086 6.82275C25.5505 6.82275 24.5172 5.62792 24.5172 3.69677Z" fill="white"/>
<path d="M30.6999 4.42476C30.6716 4.12884 30.7054 3.83027 30.7992 3.5482C30.8931 3.26613 31.0448 3.00679 31.2448 2.78681C31.4447 2.56683 31.6884 2.39106 31.9603 2.27078C32.2321 2.15051 32.5261 2.08838 32.8234 2.08838C33.1207 2.08838 33.4147 2.15051 33.6865 2.27078C33.9584 2.39106 34.2021 2.56683 34.402 2.78681C34.602 3.00679 34.7537 3.26613 34.8476 3.5482C34.9414 3.83027 34.9752 4.12884 34.9469 4.42476C34.9758 4.72098 34.9423 5.01996 34.8487 5.30249C34.7551 5.58501 34.6035 5.84483 34.4035 6.06524C34.2035 6.28566 33.9596 6.46179 33.6875 6.58233C33.4154 6.70286 33.121 6.76513 32.8234 6.76513C32.5258 6.76513 32.2314 6.70286 31.9593 6.58233C31.6872 6.46179 31.4433 6.28566 31.2433 6.06524C31.0433 5.84483 30.8917 5.58501 30.7981 5.30249C30.7045 5.01996 30.671 4.72098 30.6999 4.42476ZM34.0329 4.42476C34.0329 3.44869 33.5944 2.87789 32.8249 2.87789C32.0524 2.87789 31.6179 3.44869 31.6179 4.42477C31.6179 5.40866 32.0524 5.97506 32.8249 5.97506C33.5944 5.97505 34.0329 5.40474 34.0329 4.42476H34.0329Z" fill="white"/>
<path d="M36.1393 2.17534H36.9948V2.89067H37.0612C37.1738 2.63375 37.3638 2.41837 37.6047 2.27457C37.8456 2.13076 38.1253 2.06569 38.4049 2.08842C38.624 2.07194 38.844 2.10498 39.0486 2.18508C39.2532 2.26517 39.4372 2.39028 39.5868 2.55112C39.7365 2.71196 39.8481 2.90442 39.9133 3.11424C39.9785 3.32406 39.9957 3.54587 39.9635 3.76322V6.67822H39.0748V3.98638C39.0748 3.26275 38.7604 2.90288 38.1032 2.90288C37.9544 2.89595 37.8059 2.92127 37.6678 2.9771C37.5298 3.03293 37.4054 3.11795 37.3033 3.22633C37.2012 3.33472 37.1237 3.4639 37.0762 3.60503C37.0286 3.74617 37.0122 3.8959 37.028 4.04399V6.67827H36.1393V2.17534Z" fill="white"/>
<path d="M42.984 2.08838C43.9967 2.08838 44.6588 2.55957 44.7457 3.35352H43.8932C43.8112 3.02295 43.4879 2.81202 42.984 2.81202C42.4879 2.81202 42.111 3.04737 42.111 3.39893C42.111 3.66793 42.3385 3.83741 42.8268 3.94922L43.5748 4.12256C44.4313 4.32129 44.8326 4.68945 44.8326 5.35108C44.8326 6.19874 44.0426 6.76514 42.9674 6.76514C41.8961 6.76514 41.1979 6.28125 41.1188 5.4834H42.0085C42.0851 5.67329 42.2234 5.83193 42.401 5.93384C42.5786 6.03576 42.7853 6.07505 42.9879 6.0454C43.5417 6.0454 43.9352 5.7974 43.9352 5.43749C43.9352 5.16894 43.7243 4.99511 43.2731 4.88769L42.4879 4.70556C41.6315 4.50292 41.235 4.11865 41.235 3.44872C41.235 2.65039 41.9665 2.08838 42.984 2.08838Z" fill="white"/>
<path d="M45.9547 1.42236L46.9928 0H48.0348L46.8727 1.42236H45.9547ZM46.0465 2.17529H46.9313V6.67822H46.0465V2.17529Z" fill="white"/>
<path d="M48.3151 7.12888H49.2242C49.2994 7.45554 49.6754 7.66647 50.275 7.66647C51.0153 7.66647 51.4537 7.31491 51.4537 6.71969V5.85543H51.3873C51.2479 6.09736 51.0444 6.29605 50.7991 6.42952C50.5539 6.563 50.2765 6.62608 49.9977 6.61178C48.8483 6.61178 48.1373 5.72312 48.1373 4.37497C48.1373 3.00197 48.8561 2.10055 50.0065 2.10055C50.2923 2.0906 50.5754 2.15939 50.8247 2.29941C51.0741 2.43943 51.2802 2.64529 51.4205 2.8945H51.4908V2.17526H52.3424V6.71526C52.3424 7.74505 51.5358 8.39838 50.2623 8.39838C49.1373 8.39844 48.4098 7.89401 48.3151 7.12888ZM51.4703 4.37057C51.4703 3.47357 51.0065 2.89889 50.2496 2.89889C49.485 2.89889 49.0553 3.4736 49.0553 4.37057C49.0553 5.26803 49.485 5.84275 50.2496 5.84275C51.0114 5.84274 51.4703 5.27243 51.4703 4.37057Z" fill="white"/>
<path d="M57.5549 6.67822H56.6984V5.96289H56.6281C56.5143 6.22248 56.3216 6.43966 56.0774 6.58365C55.8333 6.72764 55.55 6.79113 55.2677 6.76514C55.0499 6.7806 54.8314 6.7471 54.6283 6.66709C54.4251 6.58708 54.2425 6.46259 54.0937 6.30277C53.9449 6.14295 53.8338 5.95184 53.7685 5.74348C53.7033 5.53512 53.6855 5.31478 53.7165 5.09864V2.17529H54.6066V4.86718C54.6066 5.59472 54.8996 5.94238 55.5529 5.94238C55.7044 5.95676 55.8572 5.93714 56.0001 5.88495C56.143 5.83277 56.2725 5.74934 56.3791 5.64074C56.4857 5.53215 56.5666 5.40114 56.6161 5.25726C56.6656 5.11338 56.6824 4.96026 56.6652 4.80908V2.17529H57.5549V6.67822Z" fill="white"/>
<path d="M62.7785 5.46248C62.6577 5.87402 62.3961 6.23001 62.0395 6.46816C61.6828 6.70631 61.2537 6.81146 60.8273 6.76521C60.5306 6.77305 60.2358 6.71623 59.9633 6.5987C59.6908 6.48117 59.4472 6.30575 59.2493 6.08461C59.0513 5.86347 58.9039 5.60191 58.8172 5.31809C58.7305 5.03426 58.7067 4.73498 58.7472 4.44099C58.7077 4.14611 58.732 3.84618 58.8185 3.5615C58.905 3.27683 59.0517 3.01407 59.2485 2.79099C59.4454 2.56792 59.6879 2.38975 59.9596 2.26854C60.2313 2.14733 60.5259 2.08592 60.8234 2.08845C62.0763 2.08845 62.8322 2.94445 62.8322 4.35845V4.66855H59.6525V4.71835C59.6386 4.8836 59.6593 5.04993 59.7135 5.20668C59.7676 5.36343 59.8539 5.50714 59.9668 5.6286C60.0797 5.75005 60.2167 5.84657 60.3691 5.91197C60.5215 5.97737 60.6859 6.0102 60.8517 6.00835C61.0643 6.03387 61.2796 5.9956 61.4704 5.89839C61.6612 5.80118 61.8187 5.64944 61.923 5.46246L62.7785 5.46248ZM59.6525 4.01131H61.9269C61.9381 3.86019 61.9176 3.70839 61.8666 3.56567C61.8156 3.42295 61.7354 3.29247 61.631 3.18261C61.5266 3.07276 61.4004 2.98595 61.2605 2.92778C61.1205 2.8696 60.97 2.84134 60.8185 2.84481C60.6648 2.84288 60.5123 2.87174 60.3699 2.92968C60.2275 2.98762 60.0982 3.07348 59.9895 3.1822C59.8808 3.29091 59.795 3.42028 59.7372 3.56267C59.6793 3.70507 59.6505 3.85762 59.6525 4.01131Z" fill="white"/>
<path d="M64.0665 0.41748H64.9552V6.67822H64.0665V0.41748Z" fill="white"/>
<path d="M66.1906 4.42476C66.1623 4.12884 66.1961 3.83027 66.29 3.5482C66.3838 3.26613 66.5356 3.00679 66.7355 2.78681C66.9355 2.56683 67.1792 2.39106 67.451 2.27078C67.7229 2.15051 68.0169 2.08838 68.3141 2.08838C68.6114 2.08838 68.9054 2.15051 69.1772 2.27078C69.4491 2.39106 69.6928 2.56683 69.8927 2.78681C70.0927 3.00679 70.2444 3.26613 70.3383 3.5482C70.4321 3.83027 70.466 4.12884 70.4377 4.42476C70.4665 4.72098 70.4331 5.01996 70.3395 5.30249C70.2459 5.58501 70.0942 5.84483 69.8942 6.06524C69.6942 6.28566 69.4503 6.46179 69.1782 6.58233C68.9061 6.70286 68.6117 6.76513 68.3141 6.76513C68.0165 6.76513 67.7222 6.70286 67.45 6.58233C67.1779 6.46179 66.934 6.28566 66.734 6.06524C66.534 5.84483 66.3824 5.58501 66.2888 5.30249C66.1952 5.01996 66.1617 4.72098 66.1906 4.42476ZM69.5236 4.42476C69.5236 3.44869 69.0851 2.87789 68.3156 2.87789C67.5431 2.87789 67.1086 3.44869 67.1086 4.42477C67.1086 5.40866 67.5432 5.97506 68.3156 5.97506C69.0851 5.97505 69.5236 5.40474 69.5236 4.42476H69.5236Z" fill="white"/>
<path d="M77.881 5.46248C77.7603 5.87402 77.4987 6.23001 77.142 6.46816C76.7853 6.70631 76.3562 6.81146 75.9298 6.76521C75.6332 6.77305 75.3384 6.71623 75.0659 6.5987C74.7934 6.48117 74.5497 6.30575 74.3518 6.08461C74.1539 5.86347 74.0065 5.60191 73.9198 5.31809C73.8331 5.03426 73.8092 4.73498 73.8498 4.44099C73.8103 4.14611 73.8346 3.84618 73.9211 3.5615C74.0076 3.27683 74.1542 3.01407 74.3511 2.79099C74.5479 2.56792 74.7904 2.38975 75.0621 2.26854C75.3338 2.14733 75.6284 2.08592 75.9259 2.08845C77.1789 2.08845 77.9347 2.94445 77.9347 4.35845V4.66855H74.7551V4.71835C74.7411 4.8836 74.7619 5.04993 74.816 5.20668C74.8701 5.36343 74.9564 5.50714 75.0693 5.6286C75.1823 5.75005 75.3193 5.84657 75.4717 5.91197C75.6241 5.97737 75.7885 6.0102 75.9543 6.00835C76.1668 6.03387 76.3822 5.9956 76.573 5.89839C76.7637 5.80118 76.9213 5.64944 77.0256 5.46246L77.881 5.46248ZM74.755 4.01131H77.0295C77.0407 3.86019 77.0202 3.70839 76.9692 3.56567C76.9183 3.42295 76.838 3.29247 76.7336 3.18261C76.6292 3.07276 76.503 2.98595 76.3631 2.92778C76.2232 2.8696 76.0726 2.84134 75.9211 2.84481C75.7674 2.84288 75.6149 2.87173 75.4725 2.92967C75.3301 2.98761 75.2008 3.07347 75.0921 3.18218C74.9834 3.2909 74.8976 3.42027 74.8397 3.56267C74.7818 3.70506 74.7531 3.85761 74.7551 4.01131H74.755Z" fill="white"/>
<path d="M79.1281 2.17534H79.9835V2.89067H80.0499C80.1626 2.63375 80.3526 2.41837 80.5935 2.27457C80.8343 2.13076 81.1141 2.06569 81.3937 2.08842C81.6128 2.07194 81.8328 2.10498 82.0374 2.18508C82.242 2.26517 82.4259 2.39028 82.5756 2.55112C82.7253 2.71196 82.8369 2.90442 82.9021 3.11424C82.9673 3.32406 82.9844 3.54587 82.9523 3.76322V6.67822H82.0636V3.98638C82.0636 3.26275 81.7491 2.90288 81.0919 2.90288C80.9432 2.89595 80.7947 2.92127 80.6566 2.9771C80.5186 3.03293 80.3942 3.11795 80.2921 3.22633C80.19 3.33472 80.1125 3.4639 80.0649 3.60503C80.0174 3.74617 80.001 3.8959 80.0167 4.04399V6.67827H79.1281V2.17534Z" fill="white"/>
<path d="M90.5773 5.46248C90.4566 5.87402 90.195 6.23001 89.8383 6.46816C89.4816 6.70631 89.0525 6.81146 88.6261 6.76521C88.3295 6.77305 88.0347 6.71623 87.7622 6.5987C87.4897 6.48117 87.246 6.30575 87.0481 6.08461C86.8502 5.86347 86.7028 5.60191 86.6161 5.31809C86.5294 5.03426 86.5055 4.73498 86.5461 4.44099C86.5066 4.14611 86.5309 3.84618 86.6174 3.5615C86.7038 3.27683 86.8505 3.01407 87.0473 2.79099C87.2442 2.56792 87.4867 2.38975 87.7584 2.26854C88.0301 2.14733 88.3247 2.08592 88.6222 2.08845C89.8752 2.08845 90.631 2.94445 90.631 4.35845V4.66855H87.4513V4.71835C87.4374 4.8836 87.4582 5.04993 87.5123 5.20668C87.5664 5.36343 87.6527 5.50714 87.7656 5.6286C87.8785 5.75005 88.0156 5.84657 88.168 5.91197C88.3204 5.97737 88.4847 6.0102 88.6506 6.00835C88.8631 6.03387 89.0785 5.9956 89.2693 5.89839C89.46 5.80118 89.6176 5.64944 89.7218 5.46246L90.5773 5.46248ZM87.4513 4.01131H89.7257C89.7369 3.86019 89.7164 3.70839 89.6654 3.56567C89.6145 3.42295 89.5342 3.29247 89.4298 3.18261C89.3255 3.07276 89.1992 2.98595 89.0593 2.92778C88.9194 2.8696 88.7688 2.84134 88.6173 2.84481C88.4636 2.84288 88.3111 2.87174 88.1687 2.92969C88.0264 2.98763 87.897 3.07349 87.7884 3.18221C87.6797 3.29092 87.5939 3.42029 87.536 3.56268C87.4781 3.70508 87.4493 3.85762 87.4513 4.01131H87.4513Z" fill="white"/>
<path d="M91.8654 0.41748H92.754V6.67822H91.8654V0.41748Z" fill="white"/>
</svg>
