<svg width="14" height="14" viewBox="0 0 14 14" fill="none" xmlns="http://www.w3.org/2000/svg">
<path fill-rule="evenodd" clip-rule="evenodd" d="M0.294251 0.294496C-0.0962725 0.68502 -0.0999531 1.32186 0.290571 1.71239L5.57822 7.00004L5.57826 7.00008L0.290657 12.2877C-0.0998671 12.6782 -0.0961862 13.3151 0.294339 13.7056C0.684863 14.0961 1.32171 14.0998 1.71223 13.7093L6.99984 8.42165L12.2874 13.7093C12.678 14.0998 13.3148 14.0961 13.7053 13.7056C14.0959 13.3151 14.0995 12.6782 13.709 12.2877L8.42141 7.00008L8.42145 7.00004L13.7091 1.71239C14.0996 1.32186 14.0959 0.68502 13.7054 0.294496C13.3149 -0.0960286 12.678 -0.099709 12.2875 0.290815L6.99988 5.57846L6.99984 5.5785L6.99979 5.57846L1.71215 0.290815C1.32162 -0.099709 0.684776 -0.0960286 0.294251 0.294496Z" fill="#444444"/>
</svg>
