<svg width="56" height="56" viewBox="0 0 56 56" fill="none" xmlns="http://www.w3.org/2000/svg">
<path d="M44.5 10.33C44.5 8.75116 43.1808 7.5 41.5895 7.5H14.4105C12.8192 7.5 11.5 8.75116 11.5 10.33V45.67C11.5 47.2488 12.8192 48.5 14.4105 48.5H36.0247C36.8001 48.5 37.5463 48.199 38.0949 47.6594L43.6596 42.1845C44.1962 41.6566 44.5 40.9426 44.5 40.1952V10.33Z" fill="white" stroke="#333333"/>
<path fill-rule="evenodd" clip-rule="evenodd" d="M36.5 40L45.0619 40C45.2781 40 45.5001 40.2567 45.5001 40.4571C45.5001 40.6576 45.3148 41 45.0986 41H37.5088V48H36.5001L36.5 40Z" fill="#333333"/>
<path fill-rule="evenodd" clip-rule="evenodd" d="M38.5 15.4989C38.5 15.2234 38.2766 15 38.0011 15H18.9989C18.7234 15 18.5 15.2234 18.5 15.4989C18.5 15.7745 18.7234 15.9978 18.9989 15.9978H38.0011C38.2766 15.9978 38.5 15.7745 38.5 15.4989Z" fill="#333333"/>
<path fill-rule="evenodd" clip-rule="evenodd" d="M38.5 23.4989C38.5 23.2234 38.2766 23 38.0011 23H18.9989C18.7234 23 18.5 23.2234 18.5 23.4989C18.5 23.7745 18.7234 23.9978 18.9989 23.9978H38.0011C38.2766 23.9978 38.5 23.7745 38.5 23.4989Z" fill="#333333"/>
<path fill-rule="evenodd" clip-rule="evenodd" d="M38.5 31.4989C38.5 31.2234 38.2766 31 38.0011 31H18.9989C18.7234 31 18.5 31.2234 18.5 31.4989C18.5 31.7745 18.7234 31.9978 18.9989 31.9978H38.0011C38.2766 31.9978 38.5 31.7745 38.5 31.4989Z" fill="#333333"/>
<path fill-rule="evenodd" clip-rule="evenodd" d="M38.5 35.4989C38.5 35.2234 38.2766 35 38.0011 35H18.9989C18.7234 35 18.5 35.2234 18.5 35.4989C18.5 35.7745 18.7234 35.9978 18.9989 35.9978H38.0011C38.2766 35.9978 38.5 35.7745 38.5 35.4989Z" fill="#FF6F3D"/>
<path fill-rule="evenodd" clip-rule="evenodd" d="M38.5 19.4989C38.5 19.2234 38.2766 19 38.0011 19H18.9989C18.7234 19 18.5 19.2234 18.5 19.4989C18.5 19.7745 18.7234 19.9978 18.9989 19.9978H38.0011C38.2766 19.9978 38.5 19.7745 38.5 19.4989Z" fill="#333333"/>
<path fill-rule="evenodd" clip-rule="evenodd" d="M38.5 27.4989C38.5 27.2234 38.2766 27 38.0011 27H18.9989C18.7234 27 18.5 27.2234 18.5 27.4989C18.5 27.7745 18.7234 27.9978 18.9989 27.9978H38.0011C38.2766 27.9978 38.5 27.7745 38.5 27.4989Z" fill="#27ABA3"/>
<path fill-rule="evenodd" clip-rule="evenodd" d="M29.5379 39.4989C29.5379 39.2234 29.3145 39 29.039 39H18.9989C18.7234 39 18.5 39.2234 18.5 39.4989C18.5 39.7745 18.7234 39.9978 18.9989 39.9978H29.039C29.3145 39.9978 29.5379 39.7745 29.5379 39.4989Z" fill="#333333"/>
<path d="M52.9835 18.5095C52.9539 18.6438 52.9289 18.7794 52.8947 18.9125C52.7691 19.3998 52.5317 19.8249 52.1759 20.1811C48.4104 23.9483 44.6458 27.7154 40.8757 31.4775C40.7685 31.5843 40.615 31.6607 40.469 31.7099C38.2325 32.4621 35.9935 33.2076 33.7553 33.9552C33.7244 33.9656 33.6965 33.9852 33.6669 34.0002H33.417C32.9768 33.7428 32.9189 33.5851 33.087 33.0807C33.8191 30.8793 34.5504 28.6774 35.2897 26.478C35.3385 26.3333 35.4278 26.1877 35.5354 26.0796C39.2646 22.3413 42.9983 18.6071 46.7325 14.8734C47.8964 13.7094 49.5702 13.7094 50.7437 14.87C51.1926 15.3139 51.6335 15.7661 52.0862 16.2063C52.5601 16.6668 52.863 17.2117 52.9506 17.8708C52.9551 17.9042 52.9723 17.9355 52.9835 17.968V18.5095ZM46.2185 17.0047C43.0409 20.1832 39.8545 23.3701 36.6968 26.5281C37.95 27.7813 39.2178 29.05 40.4752 30.3078C43.6391 27.1434 46.8222 23.9595 49.9944 20.7865C48.7358 19.5258 47.4676 18.2563 46.2181 17.0052L46.2185 17.0047ZM50.825 19.9692C51.0286 19.7702 51.2397 19.5796 51.4329 19.3722C52.0223 18.7385 52.0436 17.7799 51.4529 17.1441C50.9343 16.5859 50.3895 16.0502 49.8359 15.5263C49.4579 15.1683 48.9903 15.0502 48.4696 15.1274C47.7976 15.2276 47.4363 15.7444 47.012 16.1549C48.2919 17.4353 49.5551 18.6989 50.8246 19.9688L50.825 19.9692ZM39.3793 30.9181C38.275 29.8134 37.1749 28.7133 36.0702 27.6082C35.5262 29.2352 34.9764 30.8797 34.4099 32.5739C36.1036 32.0098 37.7527 31.4604 39.3797 30.9181H39.3793Z" fill="#FF6F3D"/>
<path d="M46.2185 17.0048C47.4679 18.2563 48.7362 19.5258 49.9948 20.7861C46.8226 23.9592 43.6391 27.1431 40.4756 30.3074C39.2182 29.0496 37.95 27.7814 36.6972 26.5278C39.8548 23.3697 43.0408 20.1829 46.2189 17.0044L46.2185 17.0048Z" fill="white"/>
<path d="M50.825 19.9693C49.5555 18.6994 48.2919 17.4353 47.0124 16.1554C47.4367 15.7449 47.7979 15.2281 48.47 15.1279C48.9907 15.0503 49.4583 15.1688 49.8363 15.5268C50.3899 16.0507 50.9347 16.5864 51.4533 17.1446C52.044 17.7804 52.0227 18.739 51.4332 19.3727C51.2401 19.5801 51.029 19.7707 50.8254 19.9697L50.825 19.9693Z" fill="white"/>
<path d="M39.3793 30.9183C37.7523 31.4602 36.1032 32.0096 34.4094 32.5741C34.976 30.8799 35.5258 29.2354 36.0698 27.6084C37.1749 28.7135 38.2746 29.814 39.3789 30.9183H39.3793Z" fill="white"/>
<path d="M5.00001 10.5095C5.02962 10.6438 5.05466 10.7794 5.08886 10.9125C5.21443 11.3998 5.45181 11.8249 5.80766 12.1811C9.57313 15.9483 13.3378 19.7154 17.1078 23.4775C17.215 23.5843 17.3685 23.6607 17.5146 23.7099C19.7511 24.4621 21.9901 25.2076 24.2282 25.9552C24.2591 25.9656 24.287 25.9852 24.3167 26.0002H24.5666C25.0067 25.7428 25.0647 25.5851 24.8965 25.0807C24.1644 22.8793 23.4331 20.6774 22.6938 18.478C22.645 18.3333 22.5558 18.1877 22.4481 18.0796C18.719 14.3413 14.9852 10.6071 11.251 6.87337C10.0871 5.70943 8.41337 5.70943 7.23984 6.87003C6.79096 7.31391 6.35 7.76613 5.89736 8.20625C5.42344 8.66682 5.12057 9.21166 5.03296 9.8708C5.02837 9.90417 5.01127 9.93546 5.00001 9.968V10.5095ZM11.765 9.00474C14.9426 12.1832 18.1291 15.3701 21.2867 18.5281C20.0335 19.7813 18.7657 21.05 17.5083 22.3078C14.3444 19.1434 11.1613 15.9595 7.9891 12.7865C9.24773 11.5258 10.516 10.2563 11.7654 9.00515L11.765 9.00474ZM7.15849 11.9692C6.95491 11.7702 6.74381 11.5796 6.55066 11.3722C5.96119 10.7385 5.93991 9.77985 6.53064 9.14407C7.04919 8.58589 7.59403 8.05023 8.14762 7.52625C8.52559 7.16831 8.99325 7.05025 9.51389 7.12743C10.186 7.22755 10.5472 7.74444 10.9715 8.15494C9.6916 9.43526 8.42839 10.6989 7.15891 11.9688L7.15849 11.9692ZM18.6042 22.9181C19.7085 21.8134 20.8086 20.7133 21.9133 19.6082C22.4573 21.2352 23.0071 22.8797 23.5737 24.5739C21.8799 24.0098 20.2308 23.4604 18.6038 22.9181H18.6042Z" fill="#27ABA3"/>
<path d="M11.765 9.00481C10.5156 10.2563 9.24735 11.5258 7.98872 12.7861C11.161 15.9592 14.3444 19.1431 17.5079 22.3074C18.7653 21.0496 20.0335 19.7814 21.2863 18.5278C18.1287 15.3697 14.9427 12.1829 11.7646 9.00439L11.765 9.00481Z" fill="white"/>
<path d="M7.15853 11.9693C8.428 10.6994 9.69164 9.43535 10.9711 8.15544C10.5469 7.74494 10.1856 7.22805 9.51351 7.12793C8.99287 7.05033 8.52521 7.16881 8.14724 7.52675C7.59365 8.05073 7.04881 8.58639 6.53026 9.14458C5.93953 9.78036 5.96081 10.739 6.55028 11.3727C6.74343 11.5801 6.95453 11.7707 7.15811 11.9697L7.15853 11.9693Z" fill="white"/>
<path d="M18.6042 22.9183C20.2312 23.4602 21.8803 24.0096 23.5741 24.5741C23.0076 22.8799 22.4577 21.2354 21.9137 19.6084C20.8086 20.7135 19.7089 21.814 18.6047 22.9183H18.6042Z" fill="white"/>
</svg>
