<svg width="56" height="56" viewBox="0 0 56 56" fill="none" xmlns="http://www.w3.org/2000/svg">
<path d="M42.0895 7.5H14.9105C13.3192 7.5 12 8.75116 12 10.33V45.67C12 47.2488 13.3192 48.5 14.9105 48.5H36.5247C37.3001 48.5 38.0463 48.199 38.5949 47.6594L44.1596 42.1845C44.6962 41.6566 45 40.9426 45 40.1952V10.33C45 8.75116 43.6808 7.5 42.0895 7.5Z" fill="white" stroke="#333333"/>
<path fill-rule="evenodd" clip-rule="evenodd" d="M36.5 40L45.0619 40C45.2781 40 45.5001 40.2567 45.5001 40.4571C45.5001 40.6576 45.3148 41 45.0986 41H37.5088V48H36.5001L36.5 40Z" fill="#333333"/>
<path fill-rule="evenodd" clip-rule="evenodd" d="M38.5 15.4989C38.5 15.2234 38.2766 15 38.0011 15H18.9989C18.7234 15 18.5 15.2234 18.5 15.4989V15.4989C18.5 15.7745 18.7234 15.9978 18.9989 15.9978H38.0011C38.2766 15.9978 38.5 15.7745 38.5 15.4989V15.4989Z" fill="#333333"/>
<path fill-rule="evenodd" clip-rule="evenodd" d="M38.5 23.4989C38.5 23.2234 38.2766 23 38.0011 23H18.9989C18.7234 23 18.5 23.2234 18.5 23.4989V23.4989C18.5 23.7745 18.7234 23.9978 18.9989 23.9978H38.0011C38.2766 23.9978 38.5 23.7745 38.5 23.4989V23.4989Z" fill="#333333"/>
<path fill-rule="evenodd" clip-rule="evenodd" d="M38.5 31.4989C38.5 31.2234 38.2766 31 38.0011 31H18.9989C18.7234 31 18.5 31.2234 18.5 31.4989V31.4989C18.5 31.7745 18.7234 31.9978 18.9989 31.9978H38.0011C38.2766 31.9978 38.5 31.7745 38.5 31.4989V31.4989Z" fill="#333333"/>
<path fill-rule="evenodd" clip-rule="evenodd" d="M38.5 35.4989C38.5 35.2234 38.2766 35 38.0011 35H18.9989C18.7234 35 18.5 35.2234 18.5 35.4989V35.4989C18.5 35.7745 18.7234 35.9978 18.9989 35.9978H38.0011C38.2766 35.9978 38.5 35.7745 38.5 35.4989V35.4989Z" fill="#333333"/>
<path fill-rule="evenodd" clip-rule="evenodd" d="M38.5 19.4989C38.5 19.2234 38.2766 19 38.0011 19H18.9989C18.7234 19 18.5 19.2234 18.5 19.4989V19.4989C18.5 19.7745 18.7234 19.9978 18.9989 19.9978H38.0011C38.2766 19.9978 38.5 19.7745 38.5 19.4989V19.4989Z" fill="#333333"/>
<path fill-rule="evenodd" clip-rule="evenodd" d="M38.5 27.4989C38.5 27.2234 38.2766 27 38.0011 27H18.9989C18.7234 27 18.5 27.2234 18.5 27.4989V27.4989C18.5 27.7745 18.7234 27.9978 18.9989 27.9978H38.0011C38.2766 27.9978 38.5 27.7745 38.5 27.4989V27.4989Z" fill="#333333"/>
<path fill-rule="evenodd" clip-rule="evenodd" d="M29.5379 39.4989C29.5379 39.2234 29.3145 39 29.039 39H18.9989C18.7234 39 18.5 39.2234 18.5 39.4989V39.4989C18.5 39.7745 18.7234 39.9978 18.9989 39.9978H29.039C29.3145 39.9978 29.5379 39.7745 29.5379 39.4989V39.4989Z" fill="#333333"/>
</svg>
