<svg width="56" height="56" viewBox="0 0 56 56" fill="none" xmlns="http://www.w3.org/2000/svg">
<path d="M44.5 10.33C44.5 8.75116 43.1808 7.5 41.5895 7.5H14.4105C12.8192 7.5 11.5 8.75116 11.5 10.33V45.67C11.5 47.2488 12.8192 48.5 14.4105 48.5H36.0247C36.8001 48.5 37.5463 48.199 38.0949 47.6594L43.6596 42.1845C44.1962 41.6566 44.5 40.9426 44.5 40.1952V10.33Z" fill="white" stroke="#333333"/>
<path fill-rule="evenodd" clip-rule="evenodd" d="M36 40L44.5619 40C44.7781 40 45.0001 40.2567 45.0001 40.4571C45.0001 40.6576 44.8148 41 44.5986 41H37.0088V48H36.0001L36 40Z" fill="#333333"/>
<path fill-rule="evenodd" clip-rule="evenodd" d="M17 13.5371C17 13.261 17.2222 13.0371 17.4963 13.0371H39.5037C39.7778 13.0371 40 13.261 40 13.5371C40 13.8133 39.7778 14.0371 39.5037 14.0371H17.4963C17.2222 14.0371 17 13.8133 17 13.5371Z" fill="#333333"/>
<path d="M17.5 18C17.5 17.7239 17.7239 17.5 18 17.5H39C39.2761 17.5 39.5 17.7239 39.5 18V21C39.5 21.2761 39.2761 21.5 39 21.5H18C17.7239 21.5 17.5 21.2761 17.5 21V18Z" fill="#27ABA3" fill-opacity="0.5" stroke="#27ABA3"/>
<rect opacity="0.5" x="17" y="38" width="17" height="5" rx="1" fill="#27ABA3"/>
<path fill-rule="evenodd" clip-rule="evenodd" d="M22.7951 38.5542L22.8852 38.2856C23.2459 37.5694 23.6967 36.4951 23.6066 35.7789C23.6066 35.4208 23.3361 35.1522 22.5246 35.1522C22.1639 35.1522 21.8033 35.3313 21.5328 35.5103C21.2623 35.6894 21.082 35.8684 20.9016 36.137C20.8115 36.4056 20.7213 36.6742 20.7213 37.0323C20.7213 37.3904 20.9016 37.7485 21.082 38.1066C21.1721 38.1961 21.3525 38.4647 21.6229 38.7332C22.1639 39.3599 22.8852 40.2552 23.3361 41.0609C23.6967 40.7923 23.9672 40.5237 24.1475 40.3447C24.418 40.0761 24.5984 39.8971 24.8688 40.0761C25.2295 40.2552 25.2295 40.7923 25.2295 41.419C25.2295 41.7771 25.1393 42.1352 25.2295 42.1352C25.2295 42.1352 25.3197 41.8666 25.6803 40.9714C25.6803 40.8818 25.6803 40.7028 25.6803 40.6133C25.7705 40.4342 25.8607 40.2552 25.9508 40.0761C26.4016 39.4494 26.7623 39.4494 26.7623 40.1656C27.0328 39.718 27.3934 39.1809 27.4836 38.9123C27.8443 36.2265 28.4754 33.5408 29.2869 33.0932C29.7377 32.9141 30.0082 33.0036 30.1885 33.2722C30.6393 34.0779 28.8361 38.017 28.4754 38.8228L28.2951 39.0913C28.2049 39.6285 28.1148 40.1656 28.1148 40.7028C28.2049 40.6133 28.2951 40.5237 28.4754 40.5237C28.7459 40.3447 29.0164 40.2552 29.2869 40.1656C29.918 39.8971 30.5492 39.6285 31 39.0913C30.9098 39.8075 30.7295 40.3447 29.6475 40.8818C29.377 40.9714 29.1066 41.1504 28.9262 41.2399C28.5656 41.419 28.2951 41.7771 28.1148 42.1352V42.2247L28.0246 42.8514C27.8443 44.1047 27.8443 45 27.3934 45C27.123 45 26.9426 44.5524 26.9426 43.5676C26.9426 43.12 27.0328 42.5828 27.3033 42.0457L27.4836 40.7923C27.1229 41.2399 26.7623 41.598 26.4016 41.5085C25.7705 42.5828 25.3197 42.8514 25.0492 42.7619C24.6885 42.5828 24.5984 41.9561 24.5984 41.3295C24.5984 41.2399 24.5984 41.1504 24.5984 41.0609C24.418 41.2399 24.1475 41.5085 23.7869 41.6876C24.0574 42.4038 23.9672 43.0304 23.5164 43.4781C22.8852 44.1048 21.9836 44.1048 21.3525 43.9257C20.9918 43.8362 20.7213 43.5676 20.541 43.299C20.3607 43.0304 20.2705 42.6723 20.4508 42.3142C20.6311 41.9561 21.2623 41.598 22.2541 41.419C22.4344 41.419 22.5246 41.3295 22.7049 41.3295C22.2541 40.6133 21.6229 39.718 21.082 39.1809C20.8115 38.8228 20.6311 38.5542 20.541 38.4647C20.2705 37.9275 20.0902 37.4799 20 37.0323C20 36.5846 20.0902 36.137 20.2705 35.6894C20.4508 35.3313 20.8115 34.9732 21.1721 34.7941C21.5328 34.5256 21.9836 34.436 22.5246 34.3465C23.877 34.257 24.418 34.7941 24.5082 35.6894C24.5082 36.7637 23.9672 38.3751 22.7951 38.5542ZM22.8852 43.0304C23.0656 42.8514 23.0656 42.4933 22.9754 42.1352C22.7951 42.2247 22.5246 42.2247 22.3443 42.3142C21.5328 42.4038 21.1721 42.6723 21.082 42.8514C21.082 42.9409 21.082 42.9409 21.082 43.0304C21.1721 43.12 21.3525 43.2095 21.5328 43.299C21.9836 43.3885 22.5246 43.3885 22.8852 43.0304ZM29.0164 35.958C29.2869 35.1522 29.5574 34.436 29.6475 33.9884C29.377 34.3465 29.1967 35.0627 29.0164 35.958Z" fill="#333333"/>
<path fill-rule="evenodd" clip-rule="evenodd" d="M22 26.5C22 26.2239 22.1485 26 22.3317 26H39.6683C39.8515 26 40 26.2239 40 26.5C40 26.7761 39.8515 27 39.6683 27H22.3317C22.1485 27 22 26.7761 22 26.5Z" fill="#333333"/>
<path fill-rule="evenodd" clip-rule="evenodd" d="M22 30.4629C22 30.1867 22.1485 29.9629 22.3317 29.9629H39.6683C39.8515 29.9629 40 30.1867 40 30.4629C40 30.739 39.8515 30.9629 39.6683 30.9629H22.3317C22.1485 30.9629 22 30.739 22 30.4629Z" fill="#333333"/>
<circle cx="18.5" cy="26.5" r="1" stroke="#27ABA3"/>
<circle cx="18.5" cy="30.5" r="1" stroke="#27ABA3"/>
</svg>
