<svg width="56" height="56" viewBox="0 0 56 56" fill="none" xmlns="http://www.w3.org/2000/svg">
<path d="M44.5 10.33C44.5 8.75116 43.1808 7.5 41.5895 7.5H14.4105C12.8192 7.5 11.5 8.75116 11.5 10.33V45.67C11.5 47.2488 12.8192 48.5 14.4105 48.5H36.0247C36.8001 48.5 37.5463 48.199 38.0949 47.6594L43.6596 42.1845C44.1962 41.6566 44.5 40.9426 44.5 40.1952V10.33Z" fill="white" stroke="#333333"/>
<path d="M29.6379 19.9615C29.7221 21.051 29.3306 22.0515 29.0452 23.0715C28.9298 23.4827 28.7707 23.8829 28.6732 24.2979C28.6389 24.4433 28.6795 24.6614 28.773 24.7739C29.7408 25.9354 30.8162 26.9898 32.0163 27.9098C32.1559 28.0169 32.3883 28.0669 32.5668 28.0458C33.6742 27.9168 34.7769 27.7042 35.8982 27.8824C36.1907 27.9293 36.4886 27.9848 36.7638 28.0888C37.7183 28.4483 38.109 29.1393 37.9741 30.1773C37.8478 31.1504 37.1678 31.7554 36.1766 31.9453C35.2346 32.1259 34.5055 31.7085 33.7763 31.2614C33.2016 30.9097 32.6534 30.5118 32.1091 30.1132C31.9063 29.9647 31.7348 29.8943 31.4743 29.9662C29.8032 30.4258 28.1242 30.8573 26.457 31.3278C26.2542 31.3849 26.0398 31.5889 25.9368 31.7812C25.1118 33.3288 24.1557 34.7764 22.791 35.9027C22.377 36.2443 21.8989 36.5288 21.4123 36.7593C20.4422 37.2197 19.5205 36.9813 18.7103 36.3685C17.7238 35.6213 17.7659 34.2597 18.8303 33.3827C19.4355 32.884 20.1217 32.4667 20.8181 32.1024C22.0572 31.4537 23.3354 30.8776 24.5901 30.257C24.7367 30.1843 24.9012 30.0452 24.9535 29.8998C25.5251 28.3029 26.0811 26.6998 26.6231 25.0928C26.6613 24.9787 26.5903 24.8021 26.5217 24.6809C26.0242 23.8031 25.444 22.9652 25.026 22.0523C24.4832 20.8681 24.548 19.6199 25.0276 18.417C25.4206 17.4306 26.2043 16.9803 27.261 17.0007C28.9672 17.0327 29.4772 17.98 29.6363 19.5316C29.6511 19.673 29.6379 19.8169 29.6379 19.9599V19.9615ZM27.3413 22.8785C27.675 21.6935 28.1492 20.5922 27.941 19.3612C27.8489 18.8156 27.622 18.61 27.0738 18.6812C26.6582 18.7351 26.5303 19.0438 26.45 19.3799C26.1396 20.6805 26.5981 21.7881 27.3413 22.8793V22.8785ZM27.9628 26.4388C27.6415 27.4103 27.3366 28.3295 27.0099 29.3183C28.0728 29.0392 29.0499 28.7821 29.8702 28.5671C29.2706 27.8981 28.6342 27.1884 27.9628 26.4396V26.4388ZM23.3252 32.8411L23.2324 32.7246C22.2296 33.2788 21.2236 33.8267 20.227 34.3926C20.064 34.4848 19.9353 34.6466 19.8075 34.7912C19.6741 34.9421 19.7115 35.0718 19.8964 35.1594C20.2714 35.3383 20.6411 35.3516 21.0068 35.1359C21.9754 34.5653 22.6811 33.7337 23.3252 32.8411ZM34.3168 29.4777L34.2778 29.5958C34.5234 29.7513 34.7558 29.9389 35.0194 30.053C35.2939 30.171 35.5972 30.2601 35.892 30.2758C36.0183 30.2828 36.225 30.0952 36.2741 29.9537C36.3614 29.7005 36.1213 29.6176 35.931 29.5981C35.3945 29.5426 34.8548 29.516 34.316 29.4777H34.3168Z" fill="#CB0000"/>
<path fill-rule="evenodd" clip-rule="evenodd" d="M36 40L44.5619 40C44.7781 40 45.0001 40.2567 45.0001 40.4571C45.0001 40.6576 44.8148 41 44.5986 41H37.0088V48H36.0001L36 40Z" fill="#333333"/>
</svg>
