<svg width="56" height="56" viewBox="0 0 56 56" fill="none" xmlns="http://www.w3.org/2000/svg">
<path fill-rule="evenodd" clip-rule="evenodd" d="M42.191 12.894C42.191 11.7895 41.2956 10.894 40.191 10.894H17.191C16.0865 10.894 15.191 11.7895 15.191 12.894V42.894C15.191 43.9986 16.0865 44.894 17.191 44.894H35.4917C36.019 44.894 36.525 44.6858 36.8996 44.3145L41.5989 39.6569C41.9779 39.2813 42.191 38.7699 42.191 38.2364V12.894Z" fill="white"/>
<path d="M45 10.33C45 8.75116 43.6808 7.5 42.0895 7.5H14.9105C13.3192 7.5 12 8.75116 12 10.33V45.67C12 47.2488 13.3192 48.5 14.9105 48.5H36.5247C37.3001 48.5 38.0463 48.199 38.5949 47.6594L44.1596 42.1845C44.6962 41.6566 45 40.9426 45 40.1952V10.33Z" fill="white" stroke="#333333"/>
<path fill-rule="evenodd" clip-rule="evenodd" d="M36.5 40L45.0619 40C45.2781 40 45.5001 40.2567 45.5001 40.4571C45.5001 40.6576 45.3148 41 45.0986 41H37.5088V48H36.5001L36.5 40Z" fill="#333333"/>
<path d="M18.5 14H38.5V26.9993H18.5V14Z" fill="url(#paint0_linear_2412_23289)"/>
<path fill-rule="evenodd" clip-rule="evenodd" d="M38.5 14L18.4966 13.9964V27H38.5V14ZM17.5 13V28H39.5V13H17.5Z" fill="#333333"/>
<path fill-rule="evenodd" clip-rule="evenodd" d="M38.5 33.5024C38.5 33.2249 38.2751 33 37.9976 33H19.0024C18.7249 33 18.5 33.2249 18.5 33.5024C18.5 33.7799 18.7249 34.0048 19.0024 34.0048H37.9976C38.2751 34.0048 38.5 33.7799 38.5 33.5024Z" fill="#333333"/>
<path fill-rule="evenodd" clip-rule="evenodd" d="M29.5 36.5024C29.5 36.2249 29.2751 36 28.9976 36H19.0024C18.7249 36 18.5 36.2249 18.5 36.5024C18.5 36.7799 18.7249 37.0048 19.0024 37.0048H28.9976C29.2751 37.0048 29.5 36.7799 29.5 36.5024Z" fill="#333333"/>
<path fill-rule="evenodd" clip-rule="evenodd" d="M33.9857 16.7109C34.1559 16.715 34.3138 16.7951 34.4106 16.9265L37.4678 21.0737C37.6352 21.3009 37.5745 21.6123 37.3321 21.7693C37.0897 21.9262 36.7575 21.8693 36.59 21.6421L33.9481 18.0582L29.2333 23.7891C29.1402 23.9023 28.9999 23.9727 28.8478 23.9826C28.6957 23.9924 28.5463 23.9408 28.4375 23.8408L25.4053 21.0541L20.3517 25.8797C20.1454 26.0767 19.8076 26.0797 19.5974 25.8862C19.3871 25.6928 19.384 25.3762 19.5904 25.1791L25.0175 19.997C25.2238 19.8 25.5613 19.797 25.7716 19.9902L28.7554 22.7325L33.5493 16.9054C33.6533 16.779 33.8154 16.7067 33.9857 16.7109Z" fill="white"/>
<defs>
<linearGradient id="paint0_linear_2412_23289" x1="18.5" y1="13.4922" x2="30.1977" y2="32.1926" gradientUnits="userSpaceOnUse">
<stop stop-color="#FFC671"/>
<stop offset="0.59375" stop-color="#FF7541"/>
<stop offset="1" stop-color="#FF6F3D"/>
</linearGradient>
</defs>
</svg>
