<svg width="56" height="56" viewBox="0 0 56 56" fill="none" xmlns="http://www.w3.org/2000/svg">
<path d="M44.5 10.33C44.5 8.75116 43.1808 7.5 41.5895 7.5H14.4105C12.8192 7.5 11.5 8.75116 11.5 10.33V45.67C11.5 47.2488 12.8192 48.5 14.4105 48.5H36.0247C36.8001 48.5 37.5463 48.199 38.0949 47.6594L43.6596 42.1845C44.1962 41.6566 44.5 40.9426 44.5 40.1952V10.33Z" fill="white" stroke="#333333"/>
<path fill-rule="evenodd" clip-rule="evenodd" d="M38.7606 15H17.0034V16.0236H17.0217L17.0217 20.0185H17.0034V21.0421H17.0217L17.0399 25.0262H17.0217V26.0498H17.0399L17.0399 30.0375H17.0217V31.0611H17.0399L17.0217 35.0581H17.0034V36.0817H17.0217L17.0217 39.9764H17.0034V41L30.9845 40.9725V41H31.9953V36.0542L38.7606 36.0817V36.022H39.0034L39.0034 15.0113L38.7606 15.0113V15ZM30.9845 39.9488V36.0542L25.0373 36.0817V39.9764L30.9845 39.9488ZM24.0265 39.9764L24.0265 36.0817H18.0325L18.0325 39.9764H24.0265ZM37.9926 35.0581L31.9953 35.0305L32.0135 31.0336L38.0109 31.0611L37.9926 35.0581ZM30.9845 35.0305L31.0027 31.0336L25.0556 31.0611L25.0373 35.0581L30.9845 35.0305ZM38.0109 30.0375L32.0135 30.01L32.0135 26.0223L38.0109 26.0498V30.0375ZM31.0027 30.01L31.0027 26.0223L25.0556 26.0498L25.0556 30.0375L31.0027 30.01ZM38.0109 25.0262L32.0135 24.9987L31.9953 21.0145L37.9926 21.0421L38.0109 25.0262ZM31.0027 24.9987L30.9845 21.0145L25.0373 21.0421L25.0556 25.0262L31.0027 24.9987ZM37.9926 20.0185L31.9953 19.9909V15.9961L37.9926 16.0236V20.0185ZM30.9845 19.9909V15.9961L25.0373 16.0236V20.0185L30.9845 19.9909ZM24.0448 31.0611L24.0265 35.0581H18.0325L18.0507 31.0611H24.0448ZM24.0448 26.0498L24.0448 30.0375H18.0507L18.0507 26.0498H24.0448ZM24.0265 21.0421L24.0448 25.0262H18.0507L18.0325 21.0421H24.0265ZM24.0265 16.0236L24.0265 20.0185H18.0325L18.0325 16.0236H24.0265Z" fill="#8BB825"/>
<path fill-rule="evenodd" clip-rule="evenodd" d="M36 40L44.5162 40C44.7312 40 44.952 40.2567 44.952 40.4571C44.952 40.6576 44.7677 41 44.5527 41H37.0034V48H36.0001L36 40Z" fill="#333333"/>
</svg>
