<svg width="25" height="24" viewBox="0 0 25 24" fill="none" xmlns="http://www.w3.org/2000/svg">
<path d="M21.5002 12.2067C21.5002 11.5949 21.4496 10.9798 21.3416 10.3779H12.6807V13.8437H17.6404C17.4346 14.9614 16.7733 15.9502 15.8049 16.5786V18.8273H18.7639C20.5015 17.2598 21.5002 14.9449 21.5002 12.2067Z" fill="#4285F4"/>
<path d="M12.6805 21C15.157 21 17.2455 20.203 18.7671 18.8273L15.8082 16.5786C14.9849 17.1275 13.9221 17.4384 12.6839 17.4384C10.2884 17.4384 8.25729 15.8543 7.52852 13.7246H4.4751V16.0428C6.03386 19.082 9.20874 21 12.6805 21Z" fill="#34A853"/>
<path d="M7.52534 13.7246C7.14071 12.6068 7.14071 11.3964 7.52534 10.2787V7.96045H4.47529C3.17295 10.5035 3.17295 13.4997 4.47529 16.0428L7.52534 13.7246Z" fill="#FBBC04"/>
<path d="M12.6805 6.56176C13.9896 6.54192 15.2548 7.02474 16.2029 7.91101L18.8245 5.34147C17.1645 3.81364 14.9613 2.97366 12.6805 3.00012C9.20873 3.00012 6.03386 4.91818 4.4751 7.96062L7.52514 10.2788C8.25053 8.14581 10.285 6.56176 12.6805 6.56176Z" fill="#EA4335"/>
</svg>
