<svg width="40" height="40" viewBox="0 0 40 40" fill="none" xmlns="http://www.w3.org/2000/svg">
<path d="M40 20C40 31.0457 31.0457 40 20 40C8.9543 40 0 31.0457 0 20C0 8.9543 8.9543 0 20 0C31.0457 0 40 8.9543 40 20Z" fill="url(#paint0_linear)"/>
<path d="M18.0439 26.464C18.0439 25.92 18.2359 25.456 18.6199 25.072C19.0039 24.688 19.4679 24.496 20.0119 24.496C20.5559 24.496 21.0199 24.688 21.4039 25.072C21.7879 25.456 21.9799 25.92 21.9799 26.464C21.9799 27.008 21.7879 27.464 21.4039 27.832C21.0199 28.184 20.5559 28.36 20.0119 28.36C19.4679 28.36 19.0039 28.184 18.6199 27.832C18.2359 27.464 18.0439 27.008 18.0439 26.464ZM19.6759 22.84C19.2919 20.952 18.9879 19.432 18.7639 18.28C18.5399 17.128 18.3719 16.216 18.2599 15.544C18.1479 14.856 18.0759 14.352 18.0439 14.032C18.0119 13.696 17.9959 13.408 17.9959 13.168C17.9959 12.592 18.1799 12.128 18.5479 11.776C18.9159 11.424 19.4039 11.248 20.0119 11.248C20.6199 11.248 21.1079 11.424 21.4759 11.776C21.8439 12.128 22.0279 12.592 22.0279 13.168C22.0279 13.408 22.0119 13.696 21.9799 14.032C21.9479 14.352 21.8759 14.856 21.7639 15.544C21.6519 16.216 21.4839 17.128 21.2599 18.28C21.0359 19.432 20.7319 20.952 20.3479 22.84H19.6759Z" fill="white"/>
<defs>
<linearGradient id="paint0_linear" x1="20" y1="0" x2="20" y2="40" gradientUnits="userSpaceOnUse">
<stop stop-color="#FF8E3D"/>
<stop offset="1" stop-color="#FF6F3D"/>
</linearGradient>
</defs>
</svg>
