<svg width="20" height="20" viewBox="0 0 20 20" fill="none" xmlns="http://www.w3.org/2000/svg">
<path d="M10 11.8774C11.0355 11.8774 11.875 11.038 11.875 10.0024C11.875 8.96688 11.0355 8.12742 10 8.12742C8.96447 8.12742 8.125 8.96688 8.125 10.0024C8.125 11.038 8.96447 11.8774 10 11.8774Z" fill="#666666"/>
<path d="M10 3.75242C7.90577 3.70803 5.84411 4.27573 4.06781 5.38592C2.29152 6.49611 0.877793 8.10052 0 10.0024C0.877793 11.9043 2.29152 13.5087 4.06781 14.6189C5.84411 15.7291 7.90577 16.2968 10 16.2524C12.0942 16.2968 14.1559 15.7291 15.9322 14.6189C17.7085 13.5087 19.1222 11.9043 20 10.0024C19.1222 8.10052 17.7085 6.49611 15.9322 5.38592C14.1559 4.27573 12.0942 3.70803 10 3.75242ZM10 13.7524C9.25832 13.7524 8.5333 13.5325 7.91661 13.1204C7.29993 12.7084 6.81928 12.1227 6.53545 11.4375C6.25162 10.7523 6.17736 9.99826 6.32206 9.27083C6.46675 8.5434 6.8239 7.87521 7.34835 7.35077C7.8728 6.82632 8.54098 6.46917 9.26841 6.32447C9.99584 6.17978 10.7498 6.25404 11.4351 6.53787C12.1203 6.8217 12.706 7.30234 13.118 7.91903C13.5301 8.53571 13.75 9.26074 13.75 10.0024C13.75 10.997 13.3549 11.9508 12.6517 12.6541C11.9484 13.3573 10.9946 13.7524 10 13.7524Z" fill="#666666"/>
</svg>
