<svg width="20" height="20" viewBox="0 0 20 20" fill="none" xmlns="http://www.w3.org/2000/svg">
<path d="M10 3.75C9.23581 3.74354 8.47312 3.81897 7.725 3.975L10 6.25C10.9946 6.25 11.9484 6.64509 12.6517 7.34835C13.3549 8.05161 13.75 9.00544 13.75 10L17.325 13.575C18.4573 12.5839 19.3687 11.3659 20 10C19.1222 8.0981 17.7085 6.49369 15.9322 5.3835C14.1559 4.27332 12.0942 3.70561 10 3.75Z" fill="#CCCCCC"/>
<path d="M11.7875 10.5375C11.843 10.3636 11.8725 10.1825 11.875 10C11.875 9.50272 11.6775 9.0258 11.3258 8.67417C10.9742 8.32254 10.4973 8.125 10 8.125C9.8175 8.12749 9.63637 8.15698 9.4625 8.2125L2.5 1.25L1.25 2.5L4.125 5.375C2.32291 6.47484 0.887402 8.08435 0 10C0.877793 11.9019 2.29152 13.5063 4.06781 14.6165C5.84411 15.7267 7.90577 16.2944 10 16.25C11.4429 16.2743 12.8758 16.0064 14.2125 15.4625L16.25 17.5L17.5 16.25L11.7875 10.5375ZM10 13.75C9.00544 13.75 8.05161 13.3549 7.34835 12.6517C6.64509 11.9484 6.25 10.9946 6.25 10C6.25308 9.31434 6.44793 8.64321 6.8125 8.0625L8.2125 9.4625C8.15698 9.63637 8.12749 9.8175 8.125 10C8.125 10.4973 8.32254 10.9742 8.67417 11.3258C9.0258 11.6775 9.50272 11.875 10 11.875C10.1825 11.8725 10.3636 11.843 10.5375 11.7875L11.9375 13.1875C11.3568 13.5521 10.6857 13.7469 10 13.75Z" fill="#CCCCCC"/>
</svg>
